<svg width="334" height="131" viewBox="0 0 334 131" fill="none" xmlns="http://www.w3.org/2000/svg">
<g clip-path="url(#clip0_8809_11362)">
<g clip-path="url(#clip1_8809_11362)">
<path fill-rule="evenodd" clip-rule="evenodd" d="M146.046 87.817C146.046 87.817 146.046 87.8171 145.977 87.8447C145.908 87.8724 145.908 87.8723 145.908 87.8723L145.906 87.8672C145.905 87.8638 145.903 87.8588 145.9 87.8521C145.895 87.8388 145.887 87.819 145.877 87.7929C145.856 87.7409 145.827 87.664 145.789 87.5644C145.713 87.3652 145.604 87.0753 145.474 86.7119C145.214 85.9852 144.867 84.9645 144.521 83.7886C143.828 81.4384 143.133 78.4612 143.135 75.9697L143.283 75.9694C143.281 78.4389 143.971 81.3993 144.663 83.7464C145.008 84.9191 145.354 85.9371 145.614 86.6618C145.743 87.0242 145.851 87.3131 145.927 87.5114C145.965 87.6106 145.994 87.6871 146.015 87.7388C146.025 87.7646 146.033 87.7842 146.038 87.7974C146.04 87.8039 146.042 87.8089 146.044 87.8122L146.046 87.817Z" fill="#031D1C"/>
<path fill-rule="evenodd" clip-rule="evenodd" d="M133.302 123.755C133.302 123.755 133.432 126.027 133.528 127.52C133.624 129.013 135.485 131.938 137.443 130.974C139.401 130.01 139.253 127.693 139.253 127.693C139.253 127.693 138.824 124.639 138.775 124.236C138.726 123.833 133.302 123.755 133.302 123.755Z" fill="#7D4439"/>
<path fill-rule="evenodd" clip-rule="evenodd" d="M175.799 107.258C175.799 107.258 179.189 110.359 179.919 110.682C180.648 111.004 183.145 108.898 183.147 106.604C183.149 104.31 182.223 103.762 182.223 103.762C182.223 103.762 177.491 100.754 176.762 100.431C176.032 100.108 175.799 107.258 175.799 107.258Z" fill="#7D4439"/>
<path fill-rule="evenodd" clip-rule="evenodd" d="M126.404 67.7368C126.404 67.7368 133.587 95.7875 133.387 99.8215C133.188 103.856 131.611 115.753 133.225 121.622C133.225 121.622 133.032 124.018 133.703 125.079C134.374 126.14 137.572 128.551 138.982 126.848C140.393 125.145 140.245 124.621 140.245 124.621C140.245 124.621 149.107 102.06 147.913 96.8735C146.719 91.687 145.624 86.6207 145.624 86.6207C145.624 86.6207 148.994 96.9328 153.562 99.6079C160.414 103.62 175.083 108.427 177.148 107.053C179.213 105.678 179.522 103.449 178.5 100.781C178.5 100.781 166.397 92.245 162.759 89.7922C159.122 87.3393 158.124 86.6677 156.059 79.7587C153.993 72.8496 147.101 59.777 147.101 59.777L126.404 67.7368Z" fill="#165C5D"/>
<path fill-rule="evenodd" clip-rule="evenodd" d="M189.627 121.401C189.627 121.401 188.31 119.547 187.684 119.597C187.058 119.647 185.469 119.771 185.469 119.771C185.469 119.771 183.475 120.643 183.408 120.73C183.341 120.818 182.69 122.182 182.69 122.182C182.69 122.182 181.976 123.192 182.541 124.341C183.105 125.49 187.075 123.041 187.075 123.041L189.627 121.401Z" fill="#F3CDD5"/>
<path fill-rule="evenodd" clip-rule="evenodd" d="M189.421 110.51C189.421 110.51 192.157 118.631 192.22 119.094C192.282 119.557 192.935 120.925 193.029 121.997C193.139 123.273 191.138 124.518 189.884 124.42C188.736 124.33 186.023 123.956 184.822 125.206C183.62 126.457 183.619 126.567 183.465 126.478C183.311 126.389 182.246 124.333 182.271 123.937C182.297 123.54 182.441 122.042 185.602 121.419C188.764 120.796 191.683 119.979 191.108 118.772C190.533 117.565 190.409 116.418 190.502 115.824" fill="#FEE1E6"/>
<path fill-rule="evenodd" clip-rule="evenodd" d="M186.48 114.275C186.48 114.275 184.738 110.696 184.341 109.819C183.944 108.941 182.74 106.327 182.139 107.242C181.303 108.513 179.432 110.064 179.804 110.485C180.176 110.906 180.639 110.952 181.398 112.609C182.157 114.266 183.163 121.796 183.163 121.796C183.163 121.796 185.427 119.362 187.979 120.406L186.48 114.275Z" fill="#CD382F"/>
<path fill-rule="evenodd" clip-rule="evenodd" d="M182.13 103.078C182.13 103.078 184.39 103.988 185.59 105.758C186.79 107.527 189.604 110.413 189.533 110.942C189.463 111.47 190.649 117.88 190.994 118.808C191.34 119.735 191.867 120.024 189.035 120.98L186.838 119.646C186.838 119.646 187.183 115.195 185.857 112.61C184.531 110.024 181.602 107.312 182.006 106.344C182.411 105.376 182.395 103.057 182.13 103.078Z" fill="#F87786"/>
<path fill-rule="evenodd" clip-rule="evenodd" d="M179.327 110.118C179.327 110.118 182.947 117.664 182.575 120.043C182.203 122.422 182.349 123.502 182.349 123.502C182.349 123.502 183.557 121.481 183.655 120.225C183.754 118.969 183.524 117.271 182.023 114.552C180.522 111.833 179.839 109.592 179.327 110.118Z" fill="#F87786"/>
<path fill-rule="evenodd" clip-rule="evenodd" d="M188.72 116.519C188.72 116.519 189.015 117.123 188.803 117.109C188.591 117.094 185.261 117.051 185.261 117.051C185.261 117.051 182.687 118.407 182.57 119.183C182.57 119.183 182.348 118.602 182.392 118.296C182.473 117.737 183.895 116.994 183.895 116.994L183.173 117.005L182.847 116.342L185 116.231L186.694 115.546L186.733 116.185L186.707 116.219C186.707 116.219 188.236 116.305 188.72 116.519Z" fill="#FEE1E6"/>
<path fill-rule="evenodd" clip-rule="evenodd" d="M188.72 116.519C188.72 116.519 189.062 116.944 188.909 117.116C188.756 117.288 183.896 116.994 183.896 116.994C183.896 116.994 188.847 117.238 188.854 117.02C188.861 116.802 188.72 116.519 188.72 116.519Z" fill="#9A3E1F"/>
<path d="M184.998 116.206C185.132 116.187 185.283 116.174 185.448 116.167C185.587 116.16 185.733 116.158 185.886 116.159C186.083 116.16 186.28 116.167 186.467 116.177L186.548 116.182C186.573 116.184 186.598 116.186 186.622 116.187L186.71 116.194L186.706 116.243L186.641 116.238L186.57 116.233C186.536 116.231 186.501 116.229 186.464 116.227C186.277 116.216 186.082 116.209 185.886 116.208C185.734 116.207 185.588 116.209 185.45 116.216C185.3 116.222 185.161 116.234 185.038 116.25L185.005 116.255L184.998 116.206Z" fill="#9A3E1F"/>
<path fill-rule="evenodd" clip-rule="evenodd" d="M188.639 117.696C188.639 117.696 188.867 118.091 188.665 118.1C188.464 118.109 185.288 118.383 185.288 118.383C185.288 118.383 182.706 119.565 182.525 120.118C182.525 120.118 182.365 119.732 182.435 119.514C182.563 119.116 183.989 118.468 183.989 118.468L182.977 118.591L182.941 118.112L185.114 117.834L186.77 117.155L186.789 117.641L186.744 117.67C186.744 117.67 188.197 117.59 188.639 117.696Z" fill="#FEE1E6"/>
<path fill-rule="evenodd" clip-rule="evenodd" d="M188.639 117.696C188.639 117.696 188.927 117.961 188.766 118.095C188.604 118.229 183.989 118.468 183.989 118.468C183.989 118.468 188.696 118.185 188.722 118.033C188.749 117.881 188.639 117.696 188.639 117.696Z" fill="#9A3E1F"/>
<path d="M185.108 117.809C185.239 117.783 185.386 117.76 185.546 117.74C185.672 117.724 185.805 117.709 185.943 117.697C186.135 117.679 186.325 117.665 186.507 117.656L186.61 117.65L186.743 117.644L186.745 117.693L186.682 117.696L186.588 117.701C186.563 117.702 186.537 117.703 186.509 117.705C186.329 117.715 186.138 117.728 185.948 117.746C185.81 117.758 185.678 117.773 185.552 117.789C185.407 117.808 185.274 117.828 185.153 117.851L185.118 117.858L185.108 117.809Z" fill="#9A3E1F"/>
<path fill-rule="evenodd" clip-rule="evenodd" d="M188.222 114.954C188.222 114.954 188.517 115.557 188.305 115.543C188.093 115.529 184.763 115.485 184.763 115.485C184.763 115.485 182.358 116.893 182.242 117.67C182.242 117.67 182.006 117.088 182.064 116.782C182.122 116.476 183.397 115.428 183.397 115.428L182.341 115.466L182.237 114.766L184.502 114.665L186.286 114.045L186.48 114.663L186.208 114.653C186.208 114.653 187.738 114.739 188.222 114.954Z" fill="#FEE1E6"/>
<path fill-rule="evenodd" clip-rule="evenodd" d="M188.223 114.954C188.223 114.954 188.565 115.379 188.412 115.55C188.259 115.723 183.398 115.429 183.398 115.429C183.398 115.429 188.35 115.672 188.357 115.455C188.364 115.237 188.223 114.954 188.223 114.954Z" fill="#9A3E1F"/>
<path d="M184.499 114.641C184.633 114.622 184.784 114.609 184.949 114.601C185.088 114.595 185.235 114.593 185.388 114.593C185.584 114.595 185.781 114.602 185.968 114.612L186.049 114.617C186.066 114.618 186.083 114.619 186.099 114.62L186.212 114.629L186.208 114.678L186.142 114.673L186.071 114.668C186.038 114.666 186.003 114.663 185.965 114.661C185.779 114.651 185.583 114.644 185.387 114.643C185.235 114.642 185.089 114.644 184.951 114.65C184.802 114.657 184.663 114.669 184.54 114.685L184.507 114.69L184.499 114.641Z" fill="#9A3E1F"/>
<path fill-rule="evenodd" clip-rule="evenodd" d="M187.64 113.214C187.64 113.214 188.098 113.922 187.877 113.921C187.657 113.919 184.234 114.122 184.234 114.122C184.234 114.122 181.946 115.962 182.027 116.911C182.027 116.911 181.649 116.224 181.616 115.85C181.555 115.167 182.821 114.159 182.821 114.159L181.749 114.287L181.462 113.447L183.756 113.15L185.427 111.975L185.881 112.857L185.501 113.005C185.501 113.005 187.09 112.991 187.64 113.214Z" fill="#FEE1E6"/>
<path fill-rule="evenodd" clip-rule="evenodd" d="M187.639 113.214C187.639 113.214 188.099 113.701 187.987 113.921C187.874 114.141 182.82 114.159 182.82 114.159C182.82 114.159 187.955 114.074 187.906 113.809C187.857 113.546 187.639 113.214 187.639 113.214Z" fill="#9A3E1F"/>
<path d="M183.75 113.127C183.894 113.09 184.061 113.061 184.246 113.038C184.407 113.019 184.579 113.004 184.759 112.994C184.916 112.986 185.072 112.981 185.221 112.979L185.285 112.979C185.318 112.979 185.35 112.978 185.379 112.979L185.455 112.979L185.502 112.98L185.501 113.03L185.443 113.029L185.379 113.028C185.35 113.028 185.318 113.028 185.285 113.028C185.118 113.029 184.94 113.034 184.761 113.043C184.583 113.053 184.412 113.068 184.252 113.087C184.082 113.108 183.927 113.135 183.793 113.167L183.762 113.174L183.75 113.127Z" fill="#9A3E1F"/>
<path fill-rule="evenodd" clip-rule="evenodd" d="M186.728 111.358C186.728 111.358 187.185 112.066 186.964 112.065C186.744 112.063 183.322 112.267 183.322 112.267C183.322 112.267 181.258 113.667 181.338 114.615C181.338 114.615 180.947 113.929 180.927 113.555C180.909 113.18 181.909 112.304 181.909 112.304L180.836 112.431L180.549 111.591L182.844 111.294L184.514 110.119L184.969 111.002L184.588 111.149C184.588 111.149 186.178 111.135 186.728 111.358Z" fill="#FEE1E6"/>
<path fill-rule="evenodd" clip-rule="evenodd" d="M186.728 111.358C186.728 111.358 187.188 111.845 187.076 112.065C186.963 112.285 181.909 112.303 181.909 112.303C181.909 112.303 187.044 112.217 186.995 111.953C186.946 111.689 186.728 111.358 186.728 111.358Z" fill="#9A3E1F"/>
<path d="M182.838 111.27C182.982 111.234 183.149 111.205 183.334 111.182C183.495 111.162 183.667 111.148 183.846 111.138C184.027 111.128 184.205 111.123 184.373 111.122L184.468 111.122L184.543 111.123L184.59 111.124L184.589 111.173L184.531 111.172L184.467 111.172C184.445 111.171 184.422 111.171 184.397 111.172L184.373 111.172C184.206 111.173 184.029 111.177 183.849 111.187C183.671 111.197 183.5 111.212 183.34 111.231C183.17 111.252 183.016 111.278 182.881 111.31L182.85 111.318L182.838 111.27Z" fill="#9A3E1F"/>
<mask id="mask0_8809_11362" style="mask-type:luminance" maskUnits="userSpaceOnUse" x="185" y="105" width="12" height="16">
<path fill-rule="evenodd" clip-rule="evenodd" d="M185.148 108.388L192.135 105.701L196.744 117.731L189.758 120.417L185.148 108.388Z" fill="white"/>
</mask>
<g mask="url(#mask0_8809_11362)">
<path fill-rule="evenodd" clip-rule="evenodd" d="M185.295 108.331C185.295 108.331 185.159 108.837 185.576 109.236C185.576 109.236 186.087 108.71 186.961 109.816C187.835 110.923 189.225 116.551 191.154 118.126C193.084 119.701 196.521 117.734 196.521 117.734C196.521 117.734 196.965 117.406 196.238 117.27C196.238 117.27 193.986 118.773 192.193 117.999C190.745 117.374 189.594 113.828 188.578 111.875C187.642 110.075 186.977 107.833 185.295 108.331Z" fill="#FEE1E6"/>
</g>
<path fill-rule="evenodd" clip-rule="evenodd" d="M133.302 123.755C133.302 123.755 133.039 125.351 135.515 126.738C137.991 128.125 140.208 127.009 140.525 124.249C140.525 124.249 136.036 125.922 133.225 121.622C133.225 121.622 133.2 123.214 133.302 123.755Z" fill="#46AFAC"/>
<path fill-rule="evenodd" clip-rule="evenodd" d="M174.183 107.386C174.183 107.386 177.674 108.167 178.751 105.379C179.828 102.592 178.644 100.884 178.411 100.551C178.178 100.219 176.653 99.4283 176.653 99.4283C176.653 99.4283 177.635 104.725 174.183 107.386Z" fill="#46AFAC"/>
<path fill-rule="evenodd" clip-rule="evenodd" d="M113.687 80.429C113.687 80.429 113.814 81.6165 110.791 82.6492C109.196 83.1945 107.225 85.2469 106.808 84.544C106.392 83.8411 109.003 81.5583 109.003 81.5583C109.003 81.5583 107.104 82.1481 105.695 83.114C104.285 84.0799 103.046 84.8221 103.046 84.8221C103.046 84.8221 102.232 84.9345 102.485 84.2813C102.738 83.6285 103.009 83.509 103.009 83.509C103.009 83.509 102.475 83.3994 102.692 82.9101C102.908 82.4207 103.044 82.361 103.044 82.361C103.044 82.361 102.664 82.2329 102.854 81.8048C103.043 81.3766 103.405 81.2173 103.405 81.2173C103.405 81.2173 103.16 81.0294 103.63 80.6255C104.1 80.2216 106.649 78.1635 107.969 77.7298C109.289 77.2961 112.372 76.9399 112.372 76.9399C112.372 76.9399 114.24 79.7967 113.687 80.429Z" fill="#7D4439"/>
<path d="M102.965 83.4488L103.053 83.5682L103.288 83.3963C104.731 82.3468 105.824 81.608 106.568 81.1803L106.616 81.1531L106.543 81.0246L106.471 81.066C105.689 81.5178 104.537 82.3003 103.013 83.4141L102.965 83.4488Z" fill="#995B5D"/>
<path d="M102.983 82.266L103.069 82.3871L103.294 82.2187C104.665 81.1912 105.707 80.4693 106.417 80.0533L106.462 80.0269L106.39 79.8967L106.321 79.9369C105.575 80.3763 104.478 81.1411 103.029 82.2318L102.983 82.266Z" fill="#995B5D"/>
<path d="M103.385 81.1087L103.468 81.2314L103.664 81.0736C104.867 80.111 105.783 79.4376 106.41 79.0536L106.45 79.0292L106.379 78.8982L106.318 78.9353C105.66 79.3411 104.696 80.0548 103.425 81.0767L103.385 81.1087Z" fill="#995B5D"/>
<path fill-rule="evenodd" clip-rule="evenodd" d="M122.853 34.5941C122.853 34.5941 124.113 38.3915 122.435 40.5481C120.913 42.5047 127.765 47.8272 132.119 45.6782C134.503 44.5017 132.5 37.5407 132.5 37.5407C132.5 37.5407 130.358 37.9232 129.932 34.6058L122.853 34.5941Z" fill="#7D4439"/>
<path fill-rule="evenodd" clip-rule="evenodd" d="M127.92 36.9988C124.859 37.7709 122.013 36.664 120.497 33.5946C119.699 34.0567 118.651 31.9232 118.616 31.122C118.58 30.3197 119.514 30.4379 119.514 30.4379C119.514 30.4379 119.513 30.2446 119.488 30.043C118.762 24.3223 122.421 23.1532 122.421 23.1532C129.129 20.9658 130.154 28.2569 130.459 30.1785C130.764 32.1003 130.878 36.2521 127.92 36.9988Z" fill="#7D4439"/>
<path fill-rule="evenodd" clip-rule="evenodd" d="M172.469 55.807C172.454 55.8135 172.44 55.8198 172.425 55.8254C172.444 55.8311 172.463 55.8384 172.481 55.846C172.527 55.8643 172.572 55.8873 172.615 55.9148L174.003 56.7938C174.391 57.0394 174.505 57.5522 174.258 57.94C174.035 58.2899 173.595 58.4171 173.227 58.258C173.515 58.5253 173.581 58.9681 173.362 59.3128C173.16 59.6301 172.777 59.7652 172.432 59.6673C172.678 59.9369 172.723 60.3474 172.517 60.6703C172.295 61.0207 171.854 61.1476 171.485 60.9885C171.774 61.2551 171.84 61.6989 171.621 62.0431C171.375 62.4308 170.861 62.5456 170.474 62.3003L169.086 61.4212C168.993 61.3629 168.917 61.2892 168.857 61.2062L165.892 58.8466C165.946 58.7618 165.998 58.6667 166.046 58.5602C166.454 57.66 167.884 54.8686 168.213 53.8206L168.635 54.0423C168.633 54.0387 168.631 54.0351 168.63 54.0313C168.63 54.0313 170.637 54.3924 171.826 53.9645C173.016 53.5365 174.592 52.2073 174.959 52.8451C175.372 53.5678 173.567 55.3409 172.469 55.807Z" fill="#7D4439"/>
<path fill-rule="evenodd" clip-rule="evenodd" d="M108.165 77.5565C108.165 77.5565 112.164 55.8745 114.443 50.2289C116.723 44.5834 115.844 43.8704 122.351 40.6873C122.351 40.6873 123.546 44.4841 128.19 43.5399C132.833 42.5957 131.973 37.9317 131.155 37.153C131.155 37.153 137.932 36.6376 141.198 37.6956C144.465 38.7537 168.716 54.0065 168.716 54.0065L166.511 59.358C166.511 59.358 142.004 46.2571 142.276 47.7727C142.538 49.2398 151.228 62.1958 151.168 63.478C151.165 63.5204 151.154 63.55 151.132 63.5661C150.74 63.8559 146.627 68.4519 139.578 71.1627C132.529 73.8735 127.299 74.4375 127.292 74.4187C127.292 74.4187 123.966 55.8943 122.74 55.5172C121.513 55.1401 116.903 76.4085 113.513 79.2658L108.165 77.5565Z" fill="#56ACF6"/>
<path fill-rule="evenodd" clip-rule="evenodd" d="M115.484 53.1877L115.279 52.7775L117.427 51.699L117.633 52.1092L115.484 53.1877Z" fill="#165C5D"/>
<path fill-rule="evenodd" clip-rule="evenodd" d="M130.851 55.0695L130.646 54.6593L132.794 53.5808L133 53.991L130.851 55.0695Z" fill="#165C5D"/>
<path fill-rule="evenodd" clip-rule="evenodd" d="M125.502 52.7259L124.277 50.667L124.673 50.4316L125.898 52.4904L125.502 52.7259Z" fill="#165C5D"/>
<path fill-rule="evenodd" clip-rule="evenodd" d="M119.168 57.6214L118.711 57.5648L119.015 55.1853L119.471 55.242L119.168 57.6214Z" fill="#165C5D"/>
<path fill-rule="evenodd" clip-rule="evenodd" d="M142.761 60.8088L142.555 60.3986L144.704 59.32L144.91 59.7303L142.761 60.8088Z" fill="#165C5D"/>
<path fill-rule="evenodd" clip-rule="evenodd" d="M137.768 46.7944L135.626 45.7163L135.834 45.306L137.976 46.3841L137.768 46.7944Z" fill="#165C5D"/>
<path fill-rule="evenodd" clip-rule="evenodd" d="M160.116 52.6153L159.91 52.205L162.059 51.1265L162.264 51.5368L160.116 52.6153Z" fill="#165C5D"/>
<path fill-rule="evenodd" clip-rule="evenodd" d="M131.171 64.1711L130.966 63.7609L133.114 62.6824L133.32 63.0926L131.171 64.1711Z" fill="#165C5D"/>
<path fill-rule="evenodd" clip-rule="evenodd" d="M113.621 67.0178L113.359 66.6409L115.334 65.2704L115.596 65.6472L113.621 67.0178Z" fill="#165C5D"/>
<path fill-rule="evenodd" clip-rule="evenodd" d="M113.233 74.4587L111.359 72.9649L111.647 72.6057L113.521 74.0995L113.233 74.4587Z" fill="#165C5D"/>
<path fill-rule="evenodd" clip-rule="evenodd" d="M145.728 45.8517L145.522 45.4415L147.671 44.3631L147.876 44.7732L145.728 45.8517Z" fill="#165C5D"/>
<path fill-rule="evenodd" clip-rule="evenodd" d="M123.652 45.8088L123.446 45.3986L125.595 44.32L125.8 44.7302L123.652 45.8088Z" fill="#165C5D"/>
<path fill-rule="evenodd" clip-rule="evenodd" d="M163.187 56.4459L162.753 56.6019L161.945 54.3464L162.379 54.1905L163.187 56.4459Z" fill="#165C5D"/>
<path fill-rule="evenodd" clip-rule="evenodd" d="M152.556 50.2918L150.675 48.8065L150.962 48.4459L152.842 49.9312L152.556 50.2918Z" fill="#165C5D"/>
<path fill-rule="evenodd" clip-rule="evenodd" d="M166.537 55.5045L164.656 54.0194L164.942 53.6588L166.823 55.1439L166.537 55.5045Z" fill="#165C5D"/>
<path fill-rule="evenodd" clip-rule="evenodd" d="M136.875 59.0209L134.994 57.5358L135.28 57.1752L137.161 58.6603L136.875 59.0209Z" fill="#165C5D"/>
<path fill-rule="evenodd" clip-rule="evenodd" d="M131.003 70.9946L129.122 69.5094L129.408 69.1488L131.289 70.634L131.003 70.9946Z" fill="#165C5D"/>
<path fill-rule="evenodd" clip-rule="evenodd" d="M120.543 49.1098L118.662 47.6246L118.948 47.264L120.829 48.7492L120.543 49.1098Z" fill="#165C5D"/>
<path fill-rule="evenodd" clip-rule="evenodd" d="M116.682 61.3893L114.801 59.9042L115.088 59.5436L116.968 61.0287L116.682 61.3893Z" fill="#165C5D"/>
<path fill-rule="evenodd" clip-rule="evenodd" d="M126.254 60.5944L125.84 60.3947L126.891 58.2355L127.305 58.4353L126.254 60.5944Z" fill="#165C5D"/>
<path fill-rule="evenodd" clip-rule="evenodd" d="M138.694 53.291L138.281 53.0912L139.332 50.9321L139.746 51.1318L138.694 53.291Z" fill="#165C5D"/>
<path fill-rule="evenodd" clip-rule="evenodd" d="M137.868 67.372L137.454 67.1723L138.506 65.0131L138.919 65.2129L137.868 67.372Z" fill="#165C5D"/>
<path fill-rule="evenodd" clip-rule="evenodd" d="M156.033 52.6501L155.619 52.4504L156.671 50.2912L157.084 50.491L156.033 52.6501Z" fill="#165C5D"/>
<path fill-rule="evenodd" clip-rule="evenodd" d="M130.55 48.5075L130.136 48.3078L131.188 46.1486L131.601 46.3484L130.55 48.5075Z" fill="#165C5D"/>
<path fill-rule="evenodd" clip-rule="evenodd" d="M141.861 43.4372L141.448 43.2375L142.499 41.0783L142.913 41.2781L141.861 43.4372Z" fill="#165C5D"/>
<path fill-rule="evenodd" clip-rule="evenodd" d="M172.068 56.6771L172.076 56.7057C172.063 56.7002 172.049 56.6948 172.036 56.6906C172.046 56.6865 172.057 56.6818 172.068 56.6771Z" fill="#7D4439"/>
<path d="M126.941 28.565L127.138 28.5536L127.142 28.6151C127.146 28.6652 127.15 28.7223 127.155 28.7854C127.17 28.966 127.189 29.1586 127.214 29.3551C127.241 29.5735 127.273 29.7831 127.31 29.9785L127.321 30.0362C127.419 30.5316 127.544 30.8907 127.688 31.0539L127.697 31.0631C128.493 31.9155 128.133 32.6413 126.829 32.7315L126.789 32.734L126.778 32.5372C127.958 32.4684 128.235 31.9284 127.552 31.1978C127.364 30.9967 127.224 30.5866 127.116 30.0157C127.078 29.816 127.045 29.6023 127.018 29.3801C126.996 29.2028 126.978 29.0288 126.963 28.8636L126.958 28.8021C126.955 28.7655 126.953 28.7308 126.95 28.6983L126.944 28.6158L126.941 28.565Z" fill="black"/>
<path d="M125.084 37.3518L125.113 37.1567L125.152 37.1619L125.189 37.1663C125.244 37.1727 125.306 37.1792 125.375 37.1853L125.405 37.1879C125.635 37.2076 125.887 37.2194 126.15 37.2194C126.756 37.2193 127.331 37.1572 127.833 37.0155C128.061 36.9513 128.269 36.8717 128.457 36.7758L128.494 36.7564L128.586 36.9302C128.376 37.0419 128.142 37.1331 127.886 37.2052C127.364 37.3525 126.772 37.4164 126.15 37.4165C125.88 37.4165 125.623 37.4045 125.387 37.3843L125.298 37.3762C125.259 37.3725 125.224 37.3687 125.19 37.3649L125.127 37.3575L125.084 37.3518Z" fill="black"/>
<path fill-rule="evenodd" clip-rule="evenodd" d="M127.527 32.5941C127.341 32.6658 127.094 32.7189 126.769 32.7379L126.758 32.5411C127.364 32.5057 127.758 32.3381 127.867 32.069C127.959 31.84 127.84 31.532 127.531 31.2017C127.322 30.9776 127.156 30.4638 127.037 29.6744C126.95 29.0968 126.921 28.5741 126.921 28.5689L127.118 28.5576C127.149 29.1224 127.309 30.6745 127.676 31.067C128.142 31.566 128.137 31.9271 128.05 32.1421C127.988 32.2956 127.845 32.4719 127.527 32.5941Z" fill="black"/>
<path fill-rule="evenodd" clip-rule="evenodd" d="M125.3 29.0831C125.272 29.0938 125.242 29.1 125.211 29.101C124.906 29.1109 124.033 29.161 123.663 29.2729C123.314 29.3783 122.861 29.7444 122.715 29.8766C122.604 29.9776 122.433 29.97 122.332 29.8596C122.231 29.7492 122.239 29.5779 122.35 29.4768C122.375 29.4541 122.968 28.9171 123.507 28.7542C124.022 28.5986 125.147 28.5608 125.195 28.5593C125.345 28.5544 125.47 28.6718 125.474 28.8214C125.478 28.9397 125.405 29.0428 125.3 29.0831Z" fill="black"/>
<path fill-rule="evenodd" clip-rule="evenodd" d="M129.896 28.306C129.846 28.3256 129.788 28.3298 129.732 28.3145C129.551 28.2657 129.009 28.1543 128.672 28.2232C128.313 28.2968 127.56 28.6593 127.3 28.7927C127.17 28.8594 127.01 28.8086 126.944 28.6788C126.877 28.5489 126.929 28.3893 127.059 28.3224C127.1 28.3014 128.063 27.8082 128.567 27.7049C129.097 27.5963 129.841 27.7953 129.872 27.8038C130.013 27.8421 130.096 27.9875 130.057 28.1285C130.034 28.213 129.972 28.2768 129.896 28.306Z" fill="black"/>
<path fill-rule="evenodd" clip-rule="evenodd" d="M125.322 30.5912C125.289 30.6041 125.251 30.6049 125.215 30.5908C125.212 30.5899 124.907 30.4757 124.582 30.6146C124.246 30.7582 124.084 31.0114 124.082 31.0139C124.039 31.0828 123.947 31.1042 123.878 31.0613C123.809 31.0185 123.788 30.9281 123.831 30.8587C123.839 30.8452 124.04 30.525 124.466 30.3428C124.905 30.1558 125.307 30.309 125.324 30.3157C125.4 30.3455 125.437 30.4313 125.407 30.5073C125.391 30.5474 125.359 30.5768 125.322 30.5912Z" fill="black"/>
<path fill-rule="evenodd" clip-rule="evenodd" d="M129.36 29.5201C129.327 29.5329 129.289 29.5338 129.253 29.5197C129.251 29.5188 128.945 29.4043 128.62 29.5435C128.285 29.6867 128.122 29.9396 128.121 29.9421C128.078 30.0118 127.987 30.0336 127.917 29.9909C127.847 29.9483 127.826 29.8572 127.869 29.7876C127.877 29.7741 128.078 29.4539 128.505 29.2717C128.943 29.0848 129.345 29.2379 129.362 29.2446C129.438 29.2744 129.475 29.3602 129.445 29.4362C129.429 29.4763 129.398 29.5057 129.36 29.5201Z" fill="black"/>
<mask id="mask1_8809_11362" style="mask-type:luminance" maskUnits="userSpaceOnUse" x="107" y="18" width="33" height="32">
<path fill-rule="evenodd" clip-rule="evenodd" d="M107.33 27.4792L131.124 18.3286L139.445 40.0461L115.651 49.1967L107.33 27.4792Z" fill="white"/>
</mask>
<g mask="url(#mask1_8809_11362)">
<path fill-rule="evenodd" clip-rule="evenodd" d="M133.664 41.972C132.593 42.819 132.294 39.1354 131.516 38.5419C130.738 37.9483 129.625 36.3488 129.994 35.2455C130.363 34.1424 130.849 31.4032 130.329 29.4796C129.808 27.5566 129.132 26.8317 129.132 26.8317C129.132 26.8317 127.967 27.8427 126.355 27.1959C125.376 26.8033 123.766 26.8505 122.336 26.3131C122.485 26.7267 122.604 27.4116 122.03 27.8702C121.16 28.5657 121.733 29.8817 119.57 30.4609C119.57 30.4609 118.323 30.3145 118.742 31.6482C119.162 32.9821 119.899 33.7421 120.505 33.5789C120.505 33.5789 121.322 33.5266 121.519 34.5851C121.716 35.6432 123.282 35.8188 123.548 37.1695C123.814 38.5202 123.352 39.149 124.225 40.1162C125.098 41.0832 125.754 42.3534 125.658 43.6985C125.561 45.0435 121.952 44.3332 121.153 45.6619C120.354 46.9902 120.046 46.4843 118.306 46.246C116.566 46.0078 115.44 47.6868 114.876 46.1816C114.069 44.0255 112.602 42.9365 113.363 41.5093C114.124 40.0822 113.6 39.1676 113.658 37.8062C113.74 35.8655 115.079 35.2204 114.834 33.8397C114.589 32.4588 114.596 30.7396 115.79 29.1361C117.131 27.3368 116.928 23.8 119.499 23.8322C119.609 23.8336 119.715 23.8389 119.816 23.8475C119.67 23.3624 119.685 22.5687 121.117 22.2046C123.257 21.6608 127.044 20.5951 128.355 22.2668C129.666 23.9379 130.098 25.5015 131.586 27.0493C133.073 28.5973 131.988 29.8514 133.087 30.8232C134.187 31.7949 135.908 32.6392 136.295 33.9408C136.682 35.2426 136.663 37.0911 138.239 37.9917C139.814 38.8918 138.675 40.4455 137.42 40.817C136.164 41.1881 134.734 41.1254 133.664 41.972Z" fill="#0F0F0F"/>
</g>
<path fill-rule="evenodd" clip-rule="evenodd" d="M126.05 34.5409C126.049 34.8168 125.825 35.041 125.548 35.0415C125.272 35.0419 125.048 34.8185 125.048 34.5425C125.049 34.2664 125.273 34.0424 125.55 34.0419C125.826 34.0414 126.05 34.2648 126.05 34.5409Z" fill="black"/>
<path fill-rule="evenodd" clip-rule="evenodd" d="M120.918 33.334C121.021 33.6006 120.887 33.9001 120.619 34.003C120.352 34.1058 120.052 33.973 119.95 33.7064C119.848 33.4397 119.982 33.1403 120.249 33.0374C120.517 32.9346 120.816 33.0673 120.918 33.334Z" fill="white"/>
</g>
</g>
<path opacity="0.5" d="M167 131C205.66 131 237 129.204 237 126.99C237 124.775 205.66 122.979 167 122.979C128.34 122.979 97 124.775 97 126.99C97 129.204 128.34 131 167 131Z" fill="#E7F3F8"/>
<path d="M197.398 0H130.514C129.67 0 128.985 0.688489 128.985 1.53778V123.242C128.985 124.092 129.67 124.78 130.514 124.78H197.398C198.242 124.78 198.927 124.092 198.927 123.242V1.53778C198.927 0.688489 198.242 0 197.398 0Z" fill="#DDB0C8"/>
<path d="M195.126 2.81201H132.568C132.133 2.81201 131.781 3.16609 131.781 3.60287V106.942C131.781 107.379 132.133 107.733 132.568 107.733H195.126C195.56 107.733 195.913 107.379 195.913 106.942V3.60287C195.913 3.16609 195.56 2.81201 195.126 2.81201Z" fill="#FCEBEC"/>
<path d="M163.957 120.694C166.382 120.694 168.347 118.697 168.347 116.234C168.347 113.772 166.382 111.775 163.957 111.775C161.532 111.775 159.566 113.772 159.566 116.234C159.566 118.697 161.532 120.694 163.957 120.694Z" fill="#FCEBEC"/>
<path d="M173.235 21.6169H138.641C137.531 21.6169 136.631 22.5218 136.631 23.638V38.4447C136.631 39.5609 137.531 40.4658 138.641 40.4658H173.235C174.345 40.4658 175.245 39.5609 175.245 38.4447V23.638C175.245 22.5218 174.345 21.6169 173.235 21.6169Z" fill="#EECCDC"/>
<path d="M170.963 26.4031H140.75C140.653 26.4031 140.575 26.4818 140.575 26.5788V28.1076C140.575 28.2047 140.653 28.2834 140.75 28.2834H170.963C171.059 28.2834 171.137 28.2047 171.137 28.1076V26.5788C171.137 26.4818 171.059 26.4031 170.963 26.4031Z" fill="#DDB0C8"/>
<path d="M170.963 30.3347H140.75C140.653 30.3347 140.575 30.4134 140.575 30.5105V32.0393C140.575 32.1363 140.653 32.215 140.75 32.215H170.963C171.059 32.215 171.137 32.1363 171.137 32.0393V30.5105C171.137 30.4134 171.059 30.3347 170.963 30.3347Z" fill="#DDB0C8"/>
<path d="M170.963 34.2664H140.75C140.653 34.2664 140.575 34.345 140.575 34.4421V35.9709C140.575 36.068 140.653 36.1466 140.75 36.1466H170.963C171.059 36.1466 171.137 36.068 171.137 35.9709V34.4421C171.137 34.345 171.059 34.2664 170.963 34.2664Z" fill="#DDB0C8"/>
<path d="M189.705 45.8699H155.111C154.001 45.8699 153.102 46.7747 153.102 47.891V62.6976C153.102 63.8138 154.001 64.7187 155.111 64.7187H189.705C190.815 64.7187 191.715 63.8138 191.715 62.6976V47.891C191.715 46.7747 190.815 45.8699 189.705 45.8699Z" fill="white"/>
<path d="M187.433 50.656H157.221C157.124 50.656 157.046 50.7347 157.046 50.8318V52.3605C157.046 52.4576 157.124 52.5363 157.221 52.5363H187.433C187.53 52.5363 187.608 52.4576 187.608 52.3605V50.8318C187.608 50.7347 187.53 50.656 187.433 50.656Z" fill="#DDB0C8"/>
<path d="M187.433 54.5876H157.221C157.124 54.5876 157.046 54.6663 157.046 54.7634V56.2922C157.046 56.3892 157.124 56.4679 157.221 56.4679H187.433C187.53 56.4679 187.608 56.3892 187.608 56.2922V54.7634C187.608 54.6663 187.53 54.5876 187.433 54.5876Z" fill="#DDB0C8"/>
<path d="M187.433 58.5193H157.221C157.124 58.5193 157.046 58.598 157.046 58.695V60.2238C157.046 60.3209 157.124 60.3996 157.221 60.3996H187.433C187.53 60.3996 187.608 60.3209 187.608 60.2238V58.695C187.608 58.598 187.53 58.5193 187.433 58.5193Z" fill="#DDB0C8"/>
<path d="M172.319 70.123H137.724C136.615 70.123 135.715 71.0279 135.715 72.1441V86.9508C135.715 88.067 136.615 88.9719 137.724 88.9719H172.319C173.429 88.9719 174.328 88.067 174.328 86.9508V72.1441C174.328 71.0279 173.429 70.123 172.319 70.123Z" fill="#EECCDC"/>
<path d="M170.046 74.9089H139.833C139.737 74.9089 139.659 74.9876 139.659 75.0847V76.6135C139.659 76.7105 139.737 76.7892 139.833 76.7892H170.046C170.143 76.7892 170.221 76.7105 170.221 76.6135V75.0847C170.221 74.9876 170.143 74.9089 170.046 74.9089Z" fill="#DDB0C8"/>
<path d="M170.046 78.8408H139.833C139.737 78.8408 139.659 78.9195 139.659 79.0166V80.5454C139.659 80.6424 139.737 80.7211 139.833 80.7211H170.046C170.143 80.7211 170.221 80.6424 170.221 80.5454V79.0166C170.221 78.9195 170.143 78.8408 170.046 78.8408Z" fill="#DDB0C8"/>
<path d="M170.046 82.7725H139.833C139.737 82.7725 139.659 82.8511 139.659 82.9482V84.477C139.659 84.5741 139.737 84.6528 139.833 84.6528H170.046C170.143 84.6528 170.221 84.5741 170.221 84.477V82.9482C170.221 82.8511 170.143 82.7725 170.046 82.7725Z" fill="#DDB0C8"/>
<path d="M179.191 97.2788H136.107C135.914 97.2788 135.757 97.4362 135.757 97.6303V103.423C135.757 103.617 135.914 103.774 136.107 103.774H179.191C179.384 103.774 179.54 103.617 179.54 103.423V97.6303C179.54 97.4362 179.384 97.2788 179.191 97.2788Z" fill="white"/>
<path d="M191.409 97.2788H182.453C182.26 97.2788 182.104 97.4362 182.104 97.6303V103.423C182.104 103.617 182.26 103.774 182.453 103.774H191.409C191.602 103.774 191.759 103.617 191.759 103.423V97.6303C191.759 97.4362 191.602 97.2788 191.409 97.2788Z" fill="#DDB0C8"/>
<path fill-rule="evenodd" clip-rule="evenodd" d="M190.101 122.265H195.201V115.948H190.101V122.265Z" fill="#C26E5E"/>
<path fill-rule="evenodd" clip-rule="evenodd" d="M213.852 120.983L208.508 121.314L208.19 116.117L213.534 115.786L213.852 120.983Z" fill="#C26E5E"/>
<path fill-rule="evenodd" clip-rule="evenodd" d="M213.882 123.602H213.878C213.816 123.151 213.818 122.797 213.824 122.638L213.882 123.602Z" fill="white"/>
<path fill-rule="evenodd" clip-rule="evenodd" d="M188.361 59.3145C188.361 59.3145 186.514 73.2658 186.912 83.9305C187.309 94.5951 188.227 114.491 188.227 114.491C188.227 114.491 187.015 115.672 187.924 116.701C188.414 117.256 196.237 116.76 196.237 116.76C196.237 116.76 196.76 115.422 196 114.275C196 114.275 198.234 75.4226 198.264 76.0331C198.437 79.5974 202.402 99.9952 206.228 114.35C206.228 114.35 205.787 116.2 206.302 116.644C206.817 117.088 214.647 117.02 214.794 116.428C214.941 115.836 214.059 113.764 214.059 113.764C214.059 113.764 211.157 74.0462 207.444 59.3145H188.361Z" fill="#921512"/>
<path fill-rule="evenodd" clip-rule="evenodd" d="M195.649 30.5798C195.649 30.5798 195.488 34.1454 193.42 35.4041C191.544 36.546 195.519 43.1725 199.795 42.7773C202.136 42.5608 202.685 36.1228 202.685 36.1228C202.685 36.1228 200.795 35.7554 201.493 32.8566L195.649 30.5798Z" fill="#C26E5E"/>
<path fill-rule="evenodd" clip-rule="evenodd" d="M199.073 34.2054C196.301 33.8681 194.3 32.0349 194.02 28.9937C193.214 29.1227 193.024 27.0107 193.249 26.3322C193.473 25.6528 194.207 26.0501 194.207 26.0501C194.207 26.0501 194.268 25.889 194.31 25.7128C195.521 20.7167 198.913 20.9149 198.913 20.9149C205.146 21.2415 203.686 27.6414 203.33 29.3392C202.974 31.0373 201.754 34.531 199.073 34.2054Z" fill="#C26E5E"/>
<path fill-rule="evenodd" clip-rule="evenodd" d="M221.022 35.845C221.022 35.845 220.674 34.8393 223.075 33.3406C224.342 32.5498 225.631 30.3753 226.132 30.9027C226.632 31.4301 224.837 33.9322 224.837 33.9322C224.837 33.9322 226.357 33.0419 227.379 31.9227C228.403 30.8034 229.322 29.9123 229.322 29.9123C229.322 29.9123 230.001 29.6528 229.915 30.2701C229.828 30.8873 229.617 31.045 229.617 31.045C229.617 31.045 230.1 31.034 230.011 31.502C229.923 31.9701 229.818 32.0489 229.818 32.0489C229.818 32.0489 230.171 32.0845 230.094 32.494C230.016 32.9036 229.736 33.1139 229.736 33.1139C229.736 33.1139 229.984 33.2283 229.66 33.6726C229.336 34.1169 227.55 36.4113 226.498 37.0506C225.446 37.69 222.857 38.613 222.857 38.613C222.857 38.613 220.672 36.5041 221.022 35.845Z" fill="#C26E5E"/>
<path fill-rule="evenodd" clip-rule="evenodd" d="M226.728 35.2902L226.674 35.1697C226.682 35.1663 227.462 34.8101 228.401 33.8223C229.051 33.1385 229.385 32.9928 229.55 32.991C229.628 32.9912 229.665 33.0209 229.674 33.0304L229.582 33.1236C229.585 33.1272 229.587 33.1284 229.587 33.1284C229.585 33.1272 229.357 33.0077 228.496 33.9135C227.537 34.9218 226.76 35.2756 226.728 35.2902Z" fill="black"/>
<path fill-rule="evenodd" clip-rule="evenodd" d="M226.495 34.6492L226.428 34.5362C226.43 34.5348 226.654 34.4 227.259 34.0521C227.671 33.815 228.26 33.1962 228.69 32.7443C228.888 32.536 229.059 32.3562 229.17 32.2584C229.539 31.934 229.824 31.9772 229.836 31.9793L229.815 32.1094C229.813 32.1093 229.575 32.0778 229.257 32.3576C229.15 32.4515 228.981 32.6294 228.785 32.8354C228.349 33.2931 227.753 33.9199 227.324 34.1666C226.72 34.5135 226.497 34.6478 226.495 34.6492Z" fill="black"/>
<path fill-rule="evenodd" clip-rule="evenodd" d="M226.319 34.1226L226.254 34.0085C226.262 34.0037 227.086 33.5221 227.686 33.005C228.245 32.5231 228.77 31.815 229.052 31.4346L229.118 31.3459C229.391 30.9786 229.585 30.968 229.607 30.968L229.609 31.0998C229.608 31.0999 229.455 31.1135 229.222 31.425L229.157 31.5134C228.872 31.8979 228.341 32.6136 227.771 33.1051C227.162 33.6302 226.328 34.1177 226.319 34.1226Z" fill="black"/>
<path fill-rule="evenodd" clip-rule="evenodd" d="M223.439 34.6483L223.369 34.537C223.389 34.5242 223.866 34.221 224.226 34.1758C224.548 34.1352 224.797 33.8894 224.799 33.887L224.892 33.9802C224.88 33.9916 224.609 34.2603 224.242 34.3066C223.911 34.3481 223.443 34.6453 223.439 34.6483Z" fill="black"/>
<path fill-rule="evenodd" clip-rule="evenodd" d="M222.858 38.6131C222.858 38.6131 222.377 38.9645 221.547 40.6781C220.717 42.3916 217.703 49.729 217.703 49.729L215.554 42.1012C215.554 42.1012 219.774 36.198 221.622 34.5497C223.469 32.9013 222.858 38.6131 222.858 38.6131Z" fill="#C26E5E"/>
<path fill-rule="evenodd" clip-rule="evenodd" d="M174.222 34.6726C174.222 34.6726 174.768 33.7606 172.727 31.7959C171.649 30.7591 170.834 28.3638 170.236 28.7759C169.638 29.188 170.881 32.009 170.881 32.009C170.881 32.009 169.577 30.8223 168.806 29.5149C168.035 28.2075 167.318 27.1446 167.318 27.1446C167.318 27.1446 166.706 26.7497 166.664 27.3717C166.623 27.9937 166.796 28.1916 166.796 28.1916C166.796 28.1916 166.326 28.0806 166.317 28.557C166.308 29.0334 166.394 29.1323 166.394 29.1323C166.394 29.1323 166.041 29.0938 166.033 29.5106C166.025 29.9274 166.256 30.1914 166.256 30.1914C166.256 30.1914 165.989 30.2517 166.215 30.7538C166.442 31.2558 167.718 33.8716 168.616 34.7156C169.514 35.5595 171.858 37.0001 171.858 37.0001C171.858 37.0001 174.428 35.39 174.222 34.6726Z" fill="#C26E5E"/>
<path fill-rule="evenodd" clip-rule="evenodd" d="M168.752 32.9451C168.724 32.924 168.036 32.4167 167.305 31.2309C166.648 30.1658 166.401 30.2351 166.398 30.2363C166.398 30.2363 166.4 30.2355 166.405 30.2327L166.333 30.1223C166.344 30.115 166.387 30.0925 166.463 30.1095C166.624 30.1456 166.92 30.3574 167.416 31.1614C168.134 32.3253 168.822 32.8333 168.829 32.8382L168.752 32.9451Z" fill="black"/>
<path fill-rule="evenodd" clip-rule="evenodd" d="M169.111 32.3667C169.11 32.365 168.919 32.1872 168.399 31.7225C168.03 31.392 167.575 30.6549 167.243 30.1168C167.094 29.8745 166.965 29.6653 166.88 29.5511C166.626 29.2121 166.387 29.1926 166.385 29.1925L166.39 29.0608C166.402 29.0614 166.69 29.0781 166.984 29.472C167.073 29.5908 167.204 29.8023 167.355 30.0473C167.683 30.5786 168.131 31.3063 168.487 31.624C169.007 32.0899 169.199 32.2684 169.201 32.2701L169.111 32.3667Z" fill="black"/>
<path fill-rule="evenodd" clip-rule="evenodd" d="M169.392 31.8877C169.385 31.8813 168.669 31.231 168.18 30.5907C167.723 29.9915 167.351 29.181 167.151 28.7456L167.105 28.6455C166.942 28.2926 166.795 28.2475 166.793 28.2472L166.823 28.1187C166.843 28.123 167.031 28.1737 167.224 28.5899L167.27 28.6904C167.468 29.1211 167.836 29.9229 168.284 30.5105C168.765 31.1413 169.472 31.7833 169.479 31.7897L169.392 31.8877Z" fill="black"/>
<path fill-rule="evenodd" clip-rule="evenodd" d="M172.103 33.0002C172.099 32.9963 171.703 32.6084 171.388 32.4991C171.037 32.3776 170.828 32.0584 170.819 32.045L170.929 31.9729C170.931 31.9758 171.124 32.2681 171.43 32.3745C171.773 32.4936 172.178 32.8892 172.195 32.9059L172.103 33.0002Z" fill="black"/>
<path fill-rule="evenodd" clip-rule="evenodd" d="M171.858 37.0001C171.858 37.0001 172.256 37.4438 172.716 39.2928C173.177 41.1417 174.621 48.9468 174.621 48.9468L178.289 41.9294C178.289 41.9294 175.371 35.2772 173.901 33.2808C172.432 31.2844 171.858 37.0001 171.858 37.0001Z" fill="#C26E5E"/>
<mask id="mask2_8809_11362" style="mask-type:luminance" maskUnits="userSpaceOnUse" x="172" y="35" width="47" height="31">
<path fill-rule="evenodd" clip-rule="evenodd" d="M172.96 35.0637H218.794V65.3846H172.96V35.0637Z" fill="white"/>
</mask>
<g mask="url(#mask2_8809_11362)">
<path fill-rule="evenodd" clip-rule="evenodd" d="M193.456 35.2737C193.456 35.2737 187.93 36.5593 185.603 40.5299C183.277 44.5004 181.573 45.0716 181.573 45.0716C181.573 45.0716 179.782 40.4582 178.821 40.634C177.86 40.8097 172.749 48.8501 172.967 49.597C173.186 50.344 177.365 60.7358 181.872 58.8132C186.379 56.8905 187.558 53.5513 187.821 54.2983C188.083 55.0452 186.816 64.4476 187.908 64.7113C189 64.9747 195.213 65.4747 200.883 65.3701C205.644 65.2823 208.528 65.5019 208.746 63.481C208.965 61.4599 208.222 54.4301 208.222 54.4301C208.222 54.4301 210.625 57.4178 212.722 56.4512C214.818 55.4846 218.794 52.2772 218.794 52.2772L215.736 41.5127L212.765 44.3686C212.765 44.3686 209.445 38.7886 207.479 37.7341C205.513 36.6797 201.69 35.0637 201.69 35.0637C201.69 35.0637 199.485 36.9872 198.524 38.3493C197.563 39.7113 197.3 40.4143 197.3 40.4143C197.3 40.4143 195.16 36.2842 193.456 35.2737Z" fill="#C03731"/>
</g>
<path d="M200.935 26.8679L201.102 26.9216L201.085 26.974C201.072 27.0168 201.058 27.0657 201.042 27.12C200.997 27.2751 200.952 27.4418 200.91 27.6132C200.864 27.8039 200.824 27.9887 200.793 28.1633L200.783 28.2149C200.708 28.6589 200.697 28.9979 200.765 29.1801L200.769 29.1905C201.157 30.1555 200.63 30.6448 199.524 30.3022L199.491 30.2915L199.544 30.1241C200.54 30.4446 200.939 30.0835 200.607 29.2563C200.515 29.0287 200.529 28.6422 200.621 28.1321C200.652 27.9537 200.693 27.7653 200.741 27.5713C200.778 27.4166 200.819 27.2659 200.859 27.1237L200.874 27.0709C200.883 27.0394 200.892 27.0096 200.9 26.9818L200.922 26.9113L200.935 26.8679Z" fill="black"/>
<path d="M196.621 33.591L196.706 33.4377L196.737 33.4549L196.766 33.4702C196.809 33.4931 196.859 33.5184 196.913 33.5455L196.937 33.5573C197.122 33.6476 197.326 33.738 197.543 33.8223C198.043 34.0163 198.537 34.1486 198.997 34.1916C199.205 34.211 199.403 34.2115 199.588 34.1916L199.625 34.1873L199.646 34.3617C199.437 34.3876 199.215 34.3884 198.981 34.3666C198.503 34.3219 197.994 34.1856 197.48 33.9863C197.258 33.9 197.049 33.8077 196.861 33.7152L196.789 33.6798C196.759 33.6645 196.731 33.6499 196.704 33.6359L196.655 33.6097L196.621 33.591Z" fill="black"/>
<path fill-rule="evenodd" clip-rule="evenodd" d="M200.144 30.4113C199.967 30.4113 199.747 30.3766 199.472 30.2881L199.525 30.1207C200.037 30.2855 200.415 30.272 200.59 30.0827C200.739 29.9216 200.738 29.6269 200.588 29.2529C200.486 28.9992 200.511 28.518 200.663 27.8225C200.774 27.3136 200.915 26.8689 200.916 26.8645L201.083 26.9182C200.929 27.3986 200.571 28.7427 200.75 29.1871C200.977 29.752 200.858 30.0509 200.718 30.2023C200.619 30.3103 200.445 30.4113 200.144 30.4113Z" fill="black"/>
<mask id="mask3_8809_11362" style="mask-type:luminance" maskUnits="userSpaceOnUse" x="196" y="25" width="4" height="2">
<path fill-rule="evenodd" clip-rule="evenodd" d="M196.699 25.9226H199.653V26.7744H196.699V25.9226Z" fill="white"/>
</mask>
<g mask="url(#mask3_8809_11362)">
<path fill-rule="evenodd" clip-rule="evenodd" d="M199.412 26.7744C199.386 26.7744 199.359 26.7701 199.333 26.7609C199.078 26.6714 198.342 26.4336 198.001 26.4082C197.679 26.3843 197.189 26.544 197.027 26.6075C196.903 26.656 196.764 26.5947 196.716 26.4705C196.667 26.3463 196.728 26.2062 196.852 26.1575C196.88 26.1465 197.539 25.8892 198.036 25.9263C198.51 25.9616 199.452 26.2906 199.491 26.3046C199.617 26.3486 199.683 26.4864 199.639 26.6124C199.605 26.712 199.512 26.7744 199.412 26.7744Z" fill="black"/>
</g>
<path fill-rule="evenodd" clip-rule="evenodd" d="M203.458 27.5994C203.41 27.5994 203.361 27.5845 203.319 27.5537C203.186 27.4552 202.773 27.1887 202.473 27.1382C202.153 27.0845 201.417 27.1453 201.16 27.1732C201.031 27.187 200.916 27.0936 200.902 26.9641C200.888 26.8346 200.981 26.7182 201.11 26.7041C201.15 26.6998 202.101 26.5975 202.55 26.673C203.023 26.7523 203.574 27.1562 203.597 27.1733C203.701 27.2505 203.724 27.3981 203.647 27.5031C203.601 27.566 203.53 27.5994 203.458 27.5994Z" fill="black"/>
<path fill-rule="evenodd" clip-rule="evenodd" d="M202.107 28.1343C202.107 28.277 201.992 28.3927 201.851 28.3927C201.709 28.3927 201.594 28.277 201.594 28.1343C201.594 27.9917 201.709 27.876 201.851 27.876C201.992 27.876 202.107 27.9917 202.107 28.1343Z" fill="black"/>
<path fill-rule="evenodd" clip-rule="evenodd" d="M201.307 35.047C201.307 35.047 203.067 34.4938 204.826 35.047C206.586 35.6002 207.795 34.7704 207.795 34.7704C207.795 34.7704 205.184 33.9027 206.871 31.2214C208.384 28.8182 205.513 26.4119 205.184 24.697C204.854 22.982 204.961 18.7982 199.413 18.4742C194.327 18.1773 192.569 21.1219 192.4 23.0978C192.228 25.0941 190.082 25.8588 190.75 28.4086C191.256 30.3417 189.98 32.4791 188.661 33.143C188.661 33.143 189.98 34.7704 191.135 34.4938C192.29 34.2172 194.214 34.6597 194.214 34.6597C194.214 34.6597 195.894 33.8815 195.41 32.3901C194.927 30.8988 193.864 30.2179 194.315 28.4997C194.766 26.7813 196.224 26.4844 196.159 24.9606C196.095 23.4369 197.473 21.1726 200.115 22.0804C200.115 22.0804 202.983 21.8534 202.983 23.8959C202.983 25.9384 203.571 26.9965 203.776 27.5859L203.368 28.7464C203.368 28.7464 202.523 32.3398 201.32 33.3638C201.32 33.3638 201.015 34.257 201.307 35.047Z" fill="#0F0F0F"/>
<path fill-rule="evenodd" clip-rule="evenodd" d="M194.449 28.9103C194.449 29.1651 194.244 29.3716 193.99 29.3716C193.737 29.3716 193.532 29.1651 193.532 28.9103C193.532 28.6555 193.737 28.449 193.99 28.449C194.244 28.449 194.449 28.6555 194.449 28.9103Z" fill="white"/>
<path fill-rule="evenodd" clip-rule="evenodd" d="M195.846 119.679H189.726C189.411 119.679 189.155 119.421 189.155 119.104V119.099C189.155 118.781 189.411 118.524 189.726 118.524H195.846C196.162 118.524 196.418 118.781 196.418 119.099V119.104C196.418 119.421 196.162 119.679 195.846 119.679Z" fill="#C03731"/>
<path fill-rule="evenodd" clip-rule="evenodd" d="M196.442 119.998C196.442 120.095 196.403 120.182 196.34 120.245C196.278 120.309 196.191 120.348 196.095 120.348H195.991V123.836H189.628V120.348H189.527C189.335 120.348 189.18 120.191 189.18 119.998C189.18 119.901 189.219 119.814 189.281 119.751C189.344 119.688 189.431 119.648 189.527 119.648H196.095C196.287 119.648 196.442 119.805 196.442 119.998Z" fill="#E0E0E0"/>
<path fill-rule="evenodd" clip-rule="evenodd" d="M186.503 129.968C186.503 129.968 186.391 128.174 186.939 127.976C187.487 127.778 196.76 127.51 196.76 127.51L196.744 129.375C196.744 129.375 193.962 130.109 191.546 130.194C189.13 130.279 186.573 130.081 186.503 129.968Z" fill="#C1C0C0"/>
<path fill-rule="evenodd" clip-rule="evenodd" d="M196.76 127.51C196.762 127.612 196.763 127.671 196.763 127.671C196.763 127.671 194.939 128.063 193.379 128.224C191.82 128.384 187.232 128.58 186.931 128.188C186.682 127.863 188.61 125.205 189.287 124.291C189.14 124.222 189.038 124.071 189.038 123.896C189.038 123.777 189.086 123.667 189.165 123.589C189.243 123.51 189.351 123.461 189.47 123.461H196.389C196.628 123.461 196.821 123.656 196.821 123.896C196.821 124.016 196.773 124.126 196.695 124.204C196.665 124.234 196.631 124.259 196.594 124.279C196.707 125.1 196.749 126.954 196.76 127.51Z" fill="#204EB2"/>
<path fill-rule="evenodd" clip-rule="evenodd" d="M187.494 126.936C187.494 126.936 186.452 128.059 186.974 128.241C187.495 128.422 191.586 128.584 193.089 128.342L194.593 128.1C194.593 128.1 194.709 127.434 193.805 126.763C193.159 126.283 192.738 125.621 192.136 125.5C191.535 125.379 190.374 125.315 189.853 125.577C189.332 125.839 188.43 126.374 187.494 126.936Z" fill="#E3E7EB"/>
<path fill-rule="evenodd" clip-rule="evenodd" d="M194.865 125.815C194.865 125.815 194.943 127.316 195.513 127.277C196.082 127.237 196.323 124.946 196.618 124.275C196.618 124.275 196.334 124.198 195.853 125.527C195.61 126.2 195.67 126.921 194.865 125.815Z" fill="white"/>
<path d="M189.371 125.106C189.832 124.968 190.347 124.89 190.898 124.902C191.613 124.918 192.335 125.085 193.047 125.434C193.152 125.485 193.196 125.612 193.145 125.718C193.094 125.823 192.967 125.867 192.862 125.815C192.206 125.494 191.544 125.341 190.889 125.327C190.384 125.316 189.912 125.387 189.49 125.513C189.354 125.553 189.233 125.597 189.129 125.64C189.099 125.652 189.073 125.664 189.05 125.674L189.021 125.688L189.01 125.694C188.906 125.747 188.779 125.707 188.726 125.603C188.672 125.498 188.713 125.37 188.816 125.317L188.838 125.306C188.868 125.291 188.912 125.272 188.968 125.248C189.085 125.199 189.22 125.151 189.371 125.106Z" fill="white"/>
<path d="M189.934 123.823C190.395 123.685 190.91 123.607 191.461 123.62C192.176 123.636 192.898 123.803 193.61 124.151C193.715 124.202 193.759 124.329 193.708 124.434C193.657 124.54 193.53 124.584 193.425 124.533C192.769 124.212 192.107 124.058 191.452 124.044C190.947 124.033 190.475 124.104 190.053 124.23C189.917 124.271 189.796 124.314 189.692 124.357L189.658 124.371C189.647 124.376 189.637 124.381 189.627 124.385L189.589 124.403L189.573 124.411C189.469 124.465 189.342 124.424 189.289 124.319C189.235 124.215 189.276 124.088 189.379 124.034L189.393 124.027C189.423 124.012 189.469 123.99 189.531 123.965C189.648 123.916 189.783 123.868 189.934 123.823Z" fill="white"/>
<path d="M189.719 124.234C190.184 124.107 190.703 124.041 191.26 124.069C191.988 124.104 192.72 124.297 193.435 124.679C193.538 124.734 193.577 124.862 193.522 124.966C193.467 125.069 193.34 125.109 193.237 125.054C192.578 124.702 191.908 124.525 191.24 124.492C190.729 124.467 190.254 124.528 189.829 124.644C189.705 124.678 189.594 124.714 189.499 124.75L189.468 124.762C189.449 124.77 189.431 124.777 189.415 124.784L189.391 124.794C189.286 124.845 189.16 124.799 189.11 124.693C189.06 124.587 189.105 124.461 189.211 124.411L189.232 124.401C189.26 124.388 189.299 124.372 189.35 124.353C189.457 124.312 189.581 124.272 189.719 124.234Z" fill="white"/>
<path d="M189.661 124.839C190.704 124.431 191.898 124.344 193.172 124.782C193.282 124.82 193.341 124.94 193.303 125.051C193.266 125.162 193.146 125.221 193.035 125.184C191.864 124.781 190.77 124.86 189.814 125.234C189.639 125.303 189.484 125.376 189.352 125.449C189.319 125.467 189.289 125.484 189.263 125.5L189.226 125.522L189.197 125.541C189.101 125.607 188.97 125.582 188.904 125.486C188.838 125.389 188.863 125.257 188.959 125.191L188.982 125.176C189.019 125.151 189.076 125.117 189.149 125.077C189.297 124.995 189.469 124.914 189.661 124.839Z" fill="white"/>
<path fill-rule="evenodd" clip-rule="evenodd" d="M208.519 119.991L214.631 119.678C214.946 119.662 215.188 119.392 215.173 119.075L215.172 119.07C215.156 118.753 214.888 118.509 214.572 118.524L208.461 118.838C208.145 118.854 207.903 119.124 207.919 119.441L207.919 119.446C207.935 119.763 208.204 120.007 208.519 119.991Z" fill="#C03731"/>
<path fill-rule="evenodd" clip-rule="evenodd" d="M207.941 120.341C207.946 120.437 207.989 120.523 208.055 120.582C208.121 120.643 208.21 120.678 208.306 120.673L208.41 120.667L208.586 124.15L214.94 123.825L214.764 120.342L214.865 120.337C215.056 120.327 215.204 120.162 215.194 119.969C215.189 119.873 215.146 119.787 215.08 119.728C215.014 119.668 214.925 119.633 214.829 119.638L208.27 119.974C208.079 119.984 207.931 120.148 207.941 120.341Z" fill="#E0E0E0"/>
<path fill-rule="evenodd" clip-rule="evenodd" d="M218.371 129.789C218.371 129.789 218.392 127.991 217.835 127.822C217.278 127.652 208.003 127.859 208.003 127.859L208.114 129.72C208.114 129.72 210.929 130.312 213.346 130.273C215.763 130.234 218.306 129.905 218.371 129.789Z" fill="#C1C0C0"/>
<path fill-rule="evenodd" clip-rule="evenodd" d="M208.003 127.859C208.007 127.962 208.009 128.02 208.009 128.02C208.009 128.02 209.851 128.318 211.416 128.399C212.981 128.479 217.574 128.44 217.854 128.033C218.087 127.696 216.026 125.139 215.303 124.262C215.447 124.185 215.542 124.03 215.533 123.855C215.527 123.735 215.473 123.629 215.391 123.554C215.309 123.48 215.198 123.437 215.079 123.443L208.17 123.797C207.931 123.809 207.748 124.013 207.76 124.254C207.766 124.373 207.82 124.48 207.902 124.554C207.933 124.582 207.968 124.606 208.006 124.624C207.935 125.45 207.986 127.303 208.003 127.859Z" fill="#204EB2"/>
<path fill-rule="evenodd" clip-rule="evenodd" d="M217.229 126.811C217.229 126.811 218.325 127.88 217.814 128.088C217.302 128.296 213.225 128.667 211.711 128.502L210.197 128.337C210.197 128.337 210.047 127.678 210.917 126.961C211.538 126.449 211.924 125.767 212.519 125.615C213.114 125.464 214.27 125.34 214.803 125.575C215.337 125.81 216.264 126.298 217.229 126.811Z" fill="#E3E7EB"/>
<path fill-rule="evenodd" clip-rule="evenodd" d="M209.81 126.07C209.81 126.07 209.807 127.572 209.236 127.562C208.666 127.552 208.309 125.276 207.981 124.62C207.981 124.62 208.261 124.529 208.808 125.832C209.085 126.492 209.062 127.215 209.81 126.07Z" fill="white"/>
<path d="M213.791 124.95C214.351 124.917 214.872 124.977 215.337 125.099C215.458 125.131 215.567 125.165 215.663 125.199L215.691 125.209C215.754 125.232 215.8 125.251 215.825 125.262C215.931 125.31 215.978 125.436 215.93 125.543C215.884 125.646 215.765 125.694 215.661 125.653L215.628 125.639L215.599 125.627C215.588 125.623 215.577 125.619 215.566 125.614L215.547 125.608C215.456 125.575 215.351 125.541 215.231 125.51C214.806 125.399 214.329 125.343 213.817 125.374C213.143 125.414 212.469 125.602 211.809 125.967C211.707 126.024 211.579 125.986 211.523 125.884C211.467 125.781 211.504 125.652 211.606 125.596C212.322 125.199 213.057 124.994 213.791 124.95Z" fill="white"/>
<path d="M213.165 123.698C213.724 123.664 214.245 123.725 214.71 123.847C214.831 123.878 214.94 123.912 215.036 123.946L215.064 123.956C215.128 123.979 215.173 123.998 215.198 124.01C215.304 124.058 215.351 124.184 215.303 124.29C215.256 124.394 215.138 124.442 215.034 124.401L215.001 124.386L214.972 124.375C214.956 124.368 214.939 124.362 214.92 124.355C214.83 124.322 214.724 124.289 214.604 124.257C214.179 124.147 213.702 124.091 213.19 124.122C212.516 124.162 211.842 124.35 211.182 124.715C211.08 124.771 210.952 124.734 210.896 124.631C210.84 124.529 210.877 124.4 210.979 124.343C211.695 123.947 212.43 123.742 213.165 123.698Z" fill="white"/>
<path d="M213.391 124.134C213.954 124.086 214.479 124.134 214.946 124.244C215.065 124.272 215.172 124.303 215.265 124.333L215.292 124.343C215.335 124.357 215.366 124.369 215.385 124.377C215.494 124.422 215.545 124.546 215.5 124.654C215.458 124.759 215.341 124.811 215.235 124.774L215.205 124.762L215.179 124.752C215.165 124.748 215.15 124.742 215.133 124.737C215.052 124.71 214.957 124.682 214.849 124.658C214.424 124.557 213.943 124.513 213.427 124.557C212.74 124.616 212.058 124.828 211.397 125.226C211.297 125.286 211.168 125.253 211.108 125.152C211.048 125.052 211.081 124.922 211.181 124.861C211.898 124.43 212.642 124.199 213.391 124.134Z" fill="white"/>
<path d="M211.449 124.951C212.733 124.435 213.958 124.475 215.033 124.854C215.195 124.911 215.341 124.972 215.47 125.034L215.502 125.049C215.585 125.09 215.644 125.123 215.677 125.143C215.776 125.205 215.807 125.335 215.747 125.435C215.687 125.532 215.564 125.564 215.466 125.511L215.431 125.491L215.424 125.487C215.394 125.47 215.358 125.451 215.316 125.43C215.194 125.371 215.053 125.31 214.893 125.254C213.909 124.908 212.786 124.871 211.605 125.345C211.497 125.388 211.374 125.335 211.331 125.227C211.288 125.117 211.341 124.994 211.449 124.951Z" fill="white"/>
<path fill-rule="evenodd" clip-rule="evenodd" d="M146.372 11.731C146.372 14.4245 144.2 16.6079 141.523 16.6079C138.845 16.6079 136.673 14.4245 136.673 11.731C136.673 9.03748 138.845 6.854 141.523 6.854C144.2 6.854 146.372 9.03748 146.372 11.731Z" fill="#DDB0C8"/>
<path d="M141.523 16.6519C144.225 16.6519 146.416 14.4487 146.416 11.731C146.416 9.01322 144.225 6.81006 141.523 6.81006C138.821 6.81006 136.63 9.01322 136.63 11.731C136.63 14.4487 138.821 16.6519 141.523 16.6519Z" fill="#EECCDC"/>
<path fill-rule="evenodd" clip-rule="evenodd" d="M137.908 15.0472C138.209 13.313 139.713 11.9946 141.523 11.9946C143.334 11.9946 144.838 13.313 145.138 15.0472C144.244 16.0332 142.955 16.6519 141.523 16.6519C140.091 16.6519 138.803 16.0332 137.908 15.0472Z" fill="white"/>
<path d="M141.523 12.4781C142.73 12.4781 143.707 11.4946 143.707 10.2813C143.707 9.06803 142.73 8.08447 141.523 8.08447C140.317 8.08447 139.339 9.06803 139.339 10.2813C139.339 11.4946 140.317 12.4781 141.523 12.4781Z" fill="white"/>
<path fill-rule="evenodd" clip-rule="evenodd" d="M186.217 7.12915L184.804 8.86156C184.804 8.86156 184.132 10.5262 186.626 13.0799C189.121 15.6335 190.547 15.1041 190.547 15.1041L191.81 13.4917L189.893 11.628L189.042 12.527L187.071 10.3527L188.051 9.13285L186.217 7.12915Z" fill="#DDB0C8"/>
<defs>
<clipPath id="clip0_8809_11362">
<rect width="114" height="115" fill="white" transform="translate(84 8)"/>
</clipPath>
<clipPath id="clip1_8809_11362">
<rect width="79.0765" height="112.016" fill="white" transform="matrix(0.933355 -0.358942 0.357789 0.933797 84 36.4512)"/>
</clipPath>
</defs>
</svg>
