<svg width="334" height="131" viewBox="0 0 334 131" fill="none" xmlns="http://www.w3.org/2000/svg">
<path opacity="0.5" d="M167.5 131C213.063 131 250 129.637 250 127.956C250 126.274 213.063 124.911 167.5 124.911C121.937 124.911 85 126.274 85 127.956C85 129.637 121.937 131 167.5 131Z" fill="#D2DDE6"/>
<path fill-rule="evenodd" clip-rule="evenodd" d="M159.641 20.0966L223.389 60.0333L161.607 101.775L97.2952 58.632L159.641 20.0966Z" fill="#DDB0C8"/>
<path d="M211.766 43.4265H109.051V122.307H211.766V43.4265Z" fill="#E6D3FF"/>
<path d="M109.051 43.4265H211.766V117.062C211.766 119.959 209.415 122.307 206.515 122.307H109.051V43.4265Z" fill="white"/>
<path fill-rule="evenodd" clip-rule="evenodd" d="M97.3374 58.6361H97.2878V127.447H223.529V58.6361H221.11L223.389 60.0632L161.404 101.572L97.2953 58.6623L97.3374 58.6361Z" fill="#EECCDC"/>
<g clip-path="url(#clip0_7619_23404)">
<path d="M160.112 52.9081C149.056 52.9081 140.082 61.8702 140.082 72.9128C140.082 83.9555 149.056 92.9176 160.112 92.9176C171.169 92.9176 180.142 83.9555 180.142 72.9128C180.142 61.8702 171.169 52.9081 160.112 52.9081ZM162.115 82.9152H158.109V78.9143H162.115V82.9152ZM162.115 74.9133H158.109V62.9105H162.115V74.9133Z" fill="#C797B1"/>
</g>
<path fill-rule="evenodd" clip-rule="evenodd" d="M203.274 58.514C203.274 58.514 199.781 69.0728 201.292 81.6113C202.802 94.1499 205.351 119.604 205.351 119.604H211.109C211.109 119.604 211.581 95.4697 212.43 87.2678C213.28 79.0659 213.657 73.2209 213.657 73.2209L215.073 67.2816L215.545 75.1064C215.545 75.1064 225.362 112.816 226.117 120.264L231.592 120.17C231.592 120.17 228.477 75.3892 227.911 71.9953C227.344 68.6014 223.191 59.5511 223.191 59.5511L203.274 58.514Z" fill="#C26E5E"/>
<path fill-rule="evenodd" clip-rule="evenodd" d="M211.175 120.787H205.395C205.097 120.787 204.855 120.546 204.855 120.248V120.243C204.855 119.945 205.097 119.703 205.395 119.703H211.175C211.473 119.703 211.715 119.945 211.715 120.243V120.248C211.715 120.546 211.473 120.787 211.175 120.787Z" fill="#0D5491"/>
<path fill-rule="evenodd" clip-rule="evenodd" d="M211.738 121.086C211.738 121.177 211.701 121.259 211.642 121.318C211.583 121.378 211.5 121.415 211.41 121.415H211.312V124.685H205.302V121.415H205.207C205.026 121.415 204.879 121.267 204.879 121.086C204.879 120.996 204.916 120.914 204.975 120.854C205.034 120.795 205.116 120.758 205.207 120.758H211.41C211.591 120.758 211.738 120.905 211.738 121.086Z" fill="#D5ECFF"/>
<path fill-rule="evenodd" clip-rule="evenodd" d="M202.351 130.437C202.351 130.437 202.244 128.754 202.762 128.569C203.279 128.383 212.038 128.132 212.038 128.132L212.023 129.881C212.023 129.881 209.396 130.57 207.114 130.649C204.832 130.729 202.417 130.543 202.351 130.437Z" fill="#505D60"/>
<path fill-rule="evenodd" clip-rule="evenodd" d="M212.039 128.132C212.04 128.228 212.041 128.282 212.041 128.282C212.041 128.282 210.318 128.65 208.845 128.801C207.373 128.951 203.039 129.135 202.755 128.767C202.52 128.463 204.341 125.969 204.981 125.112C204.842 125.047 204.745 124.906 204.745 124.742C204.745 124.63 204.791 124.527 204.864 124.454C204.938 124.38 205.041 124.334 205.153 124.334H211.687C211.913 124.334 212.096 124.517 212.096 124.742C212.096 124.855 212.05 124.957 211.976 125.031C211.948 125.059 211.917 125.083 211.882 125.102C211.988 125.871 212.028 127.61 212.039 128.132Z" fill="#204EB2"/>
<path fill-rule="evenodd" clip-rule="evenodd" d="M203.286 127.594C203.286 127.594 202.303 128.647 202.795 128.818C203.288 128.988 207.151 129.139 208.572 128.912L209.992 128.685C209.992 128.685 210.101 128.061 209.247 127.431C208.637 126.981 208.239 126.361 207.671 126.247C207.103 126.134 206.007 126.073 205.515 126.319C205.022 126.565 204.171 127.067 203.286 127.594Z" fill="#56ACF6"/>
<path fill-rule="evenodd" clip-rule="evenodd" d="M210.249 126.542C210.249 126.542 210.323 127.95 210.861 127.913C211.398 127.875 211.626 125.726 211.904 125.097C211.904 125.097 211.636 125.025 211.182 126.272C210.952 126.903 211.009 127.579 210.249 126.542Z" fill="white"/>
<path d="M205.06 125.877C205.496 125.748 205.981 125.675 206.503 125.686C207.178 125.701 207.859 125.858 208.532 126.185C208.631 126.233 208.672 126.353 208.624 126.452C208.576 126.55 208.457 126.592 208.358 126.543C207.738 126.242 207.113 126.098 206.494 126.085C206.016 126.074 205.571 126.141 205.173 126.26C205.044 126.297 204.93 126.338 204.832 126.379C204.804 126.39 204.779 126.401 204.757 126.411L204.73 126.424L204.719 126.429C204.621 126.48 204.501 126.441 204.45 126.344C204.4 126.246 204.438 126.126 204.536 126.075L204.556 126.065C204.585 126.051 204.626 126.033 204.679 126.011C204.79 125.965 204.917 125.919 205.06 125.877Z" fill="white"/>
<path d="M205.591 124.674C206.027 124.545 206.513 124.471 207.034 124.483C207.709 124.498 208.391 124.655 209.063 124.982C209.162 125.03 209.204 125.149 209.155 125.248C209.107 125.347 208.988 125.388 208.889 125.34C208.269 125.038 207.644 124.895 207.025 124.881C206.548 124.871 206.103 124.937 205.704 125.055C205.575 125.094 205.461 125.135 205.363 125.175L205.331 125.188C205.321 125.193 205.311 125.197 205.302 125.201L205.265 125.218L205.25 125.225C205.153 125.276 205.032 125.238 204.982 125.14C204.931 125.042 204.97 124.922 205.068 124.872L205.081 124.865C205.109 124.851 205.153 124.831 205.211 124.807C205.321 124.761 205.448 124.716 205.591 124.674Z" fill="white"/>
<path d="M205.388 125.059C205.827 124.94 206.317 124.878 206.844 124.904C207.532 124.937 208.222 125.118 208.898 125.476C208.995 125.528 209.032 125.648 208.98 125.746C208.928 125.843 208.808 125.88 208.711 125.828C208.089 125.498 207.455 125.332 206.824 125.301C206.342 125.278 205.893 125.335 205.492 125.443C205.374 125.475 205.27 125.509 205.181 125.543L205.151 125.554C205.133 125.562 205.116 125.568 205.101 125.575L205.078 125.585C204.979 125.632 204.86 125.589 204.813 125.49C204.766 125.39 204.809 125.272 204.908 125.225L204.929 125.215C204.955 125.204 204.992 125.188 205.04 125.17C205.141 125.132 205.258 125.094 205.388 125.059Z" fill="white"/>
<path d="M205.334 125.627C206.318 125.244 207.447 125.163 208.649 125.574C208.753 125.609 208.809 125.722 208.773 125.826C208.738 125.93 208.625 125.986 208.521 125.95C207.414 125.573 206.381 125.647 205.478 125.998C205.313 126.062 205.167 126.131 205.041 126.2C205.01 126.217 204.982 126.233 204.958 126.247L204.923 126.269L204.896 126.286C204.805 126.348 204.681 126.325 204.619 126.234C204.556 126.143 204.58 126.019 204.67 125.957L204.692 125.943C204.728 125.92 204.78 125.888 204.85 125.85C204.99 125.774 205.152 125.697 205.334 125.627Z" fill="white"/>
<path fill-rule="evenodd" clip-rule="evenodd" d="M226.405 121.283L232.178 120.989C232.475 120.974 232.704 120.72 232.689 120.423L232.689 120.418C232.674 120.12 232.42 119.891 232.123 119.906L226.35 120.201C226.052 120.216 225.823 120.469 225.838 120.767L225.839 120.771C225.854 121.069 226.107 121.298 226.405 121.283Z" fill="#0D5491"/>
<path fill-rule="evenodd" clip-rule="evenodd" d="M225.858 121.61C225.863 121.7 225.904 121.78 225.966 121.836C226.028 121.893 226.112 121.926 226.203 121.921L226.301 121.916L226.467 125.182L232.469 124.877L232.303 121.611L232.398 121.606C232.578 121.596 232.718 121.442 232.709 121.261C232.704 121.171 232.663 121.09 232.601 121.034C232.539 120.978 232.454 120.945 232.364 120.95L226.169 121.265C225.988 121.275 225.849 121.428 225.858 121.61Z" fill="#D5ECFF"/>
<path fill-rule="evenodd" clip-rule="evenodd" d="M235.709 130.472C235.709 130.472 235.73 128.785 235.204 128.626C234.677 128.468 225.917 128.662 225.917 128.662L226.022 130.407C226.022 130.407 228.68 130.962 230.964 130.925C233.246 130.889 235.649 130.581 235.709 130.472Z" fill="#505D60"/>
<path fill-rule="evenodd" clip-rule="evenodd" d="M225.917 128.662C225.921 128.758 225.923 128.812 225.923 128.812C225.923 128.812 227.662 129.092 229.141 129.168C230.619 129.243 234.956 129.206 235.221 128.824C235.441 128.509 233.495 126.111 232.812 125.287C232.948 125.216 233.037 125.07 233.029 124.906C233.024 124.794 232.972 124.694 232.895 124.624C232.817 124.554 232.713 124.514 232.6 124.52L226.075 124.851C225.849 124.863 225.676 125.054 225.688 125.28C225.693 125.392 225.744 125.492 225.822 125.562C225.851 125.588 225.884 125.61 225.92 125.628C225.853 126.402 225.901 128.14 225.917 128.662Z" fill="#204EB2"/>
<path fill-rule="evenodd" clip-rule="evenodd" d="M234.631 127.678C234.631 127.678 235.666 128.68 235.183 128.875C234.7 129.07 230.849 129.418 229.419 129.263L227.989 129.109C227.989 129.109 227.848 128.491 228.669 127.819C229.256 127.338 229.621 126.699 230.183 126.556C230.744 126.414 231.836 126.298 232.34 126.518C232.844 126.739 233.72 127.197 234.631 127.678Z" fill="#56ACF6"/>
<path fill-rule="evenodd" clip-rule="evenodd" d="M227.624 126.983C227.624 126.983 227.621 128.392 227.082 128.383C226.543 128.373 226.206 126.238 225.896 125.623C225.896 125.623 226.161 125.538 226.678 126.76C226.939 127.379 226.917 128.057 227.624 126.983Z" fill="white"/>
<path d="M231.384 125.933C231.913 125.902 232.405 125.959 232.844 126.073C232.958 126.102 233.061 126.134 233.152 126.166L233.178 126.176C233.238 126.197 233.281 126.215 233.305 126.226C233.405 126.271 233.449 126.389 233.404 126.489C233.36 126.586 233.248 126.631 233.15 126.592L233.119 126.579L233.091 126.568C233.081 126.564 233.071 126.56 233.06 126.556L233.042 126.55C232.957 126.519 232.857 126.488 232.744 126.458C232.342 126.354 231.892 126.302 231.408 126.331C230.772 126.369 230.135 126.545 229.512 126.888C229.416 126.941 229.295 126.905 229.242 126.809C229.188 126.713 229.224 126.592 229.32 126.539C229.996 126.167 230.691 125.974 231.384 125.933Z" fill="white"/>
<path d="M230.792 124.758C231.32 124.726 231.812 124.783 232.252 124.898C232.366 124.927 232.469 124.959 232.559 124.991L232.586 125C232.646 125.022 232.689 125.04 232.712 125.051C232.813 125.096 232.857 125.214 232.812 125.314C232.768 125.411 232.656 125.456 232.557 125.417L232.526 125.404L232.499 125.393C232.484 125.387 232.468 125.381 232.45 125.375C232.365 125.344 232.265 125.312 232.151 125.283C231.75 125.179 231.299 125.127 230.816 125.156C230.18 125.193 229.543 125.37 228.92 125.712C228.824 125.765 228.702 125.731 228.649 125.634C228.596 125.538 228.631 125.416 228.728 125.364C229.404 124.991 230.098 124.8 230.792 124.758Z" fill="white"/>
<path d="M231.006 125.168C231.538 125.122 232.034 125.167 232.474 125.271C232.587 125.297 232.688 125.326 232.776 125.355L232.801 125.364C232.842 125.377 232.872 125.388 232.89 125.396C232.992 125.438 233.04 125.554 232.998 125.656C232.958 125.754 232.847 125.803 232.748 125.768L232.719 125.757L232.694 125.748C232.681 125.743 232.667 125.738 232.651 125.733C232.574 125.708 232.485 125.682 232.383 125.659C231.982 125.564 231.527 125.523 231.04 125.565C230.391 125.62 229.747 125.819 229.123 126.192C229.029 126.248 228.906 126.217 228.85 126.123C228.793 126.029 228.824 125.907 228.919 125.85C229.596 125.445 230.299 125.228 231.006 125.168Z" fill="white"/>
<path d="M229.172 125.933C230.385 125.45 231.542 125.487 232.557 125.842C232.71 125.896 232.848 125.954 232.969 126.012L233 126.026C233.078 126.064 233.134 126.095 233.165 126.114C233.259 126.172 233.288 126.294 233.231 126.388C233.175 126.479 233.058 126.51 232.966 126.459L232.933 126.44L232.926 126.437C232.897 126.421 232.864 126.403 232.824 126.384C232.709 126.328 232.576 126.271 232.425 126.218C231.495 125.893 230.435 125.858 229.319 126.303C229.217 126.344 229.101 126.294 229.06 126.192C229.02 126.09 229.069 125.974 229.172 125.933Z" fill="white"/>
<path fill-rule="evenodd" clip-rule="evenodd" d="M203.163 53.5079C203.163 53.5079 201.454 63.9717 199.032 75.6734C199.032 75.6734 198.854 76.4717 200.853 76.2056C202.851 75.9395 208.624 76.2499 211.288 76.7821C213.953 77.3143 214.175 77.3143 214.175 75.4516C214.175 73.5889 214.53 69.1096 214.53 69.1096C214.53 69.1096 214.707 77.1813 215.596 76.9595C216.484 76.7378 221.434 73.6671 230.037 75.2499C230.037 75.2499 230.999 75.0237 230.716 74.0063C230.433 72.9888 225.35 58.5136 224.684 53.5079H203.163Z" fill="#204EB2"/>
<path fill-rule="evenodd" clip-rule="evenodd" d="M211.084 19.528C211.084 19.528 210.91 23.3468 208.68 24.6948C206.656 25.9179 210.943 33.015 215.556 32.5917C218.08 32.3599 218.672 25.4646 218.672 25.4646C218.672 25.4646 216.633 25.0711 217.386 21.9664L211.084 19.528Z" fill="#C26E5E"/>
<path fill-rule="evenodd" clip-rule="evenodd" d="M214.776 23.4113C211.786 23.0502 209.628 21.0867 209.326 17.8295C208.456 17.9677 208.251 15.7057 208.494 14.979C208.736 14.2513 209.527 14.6768 209.527 14.6768C209.527 14.6768 209.592 14.5043 209.638 14.3156C210.945 8.9647 214.603 9.17693 214.603 9.17693C221.325 9.52669 219.75 16.3812 219.366 18.1996C218.982 20.0182 217.666 23.7601 214.776 23.4113Z" fill="#C26E5E"/>
<path fill-rule="evenodd" clip-rule="evenodd" d="M238.448 25.1676C238.448 25.1676 238.073 24.0904 240.662 22.4853C242.028 21.6383 243.419 19.3094 243.959 19.8742C244.499 20.439 242.562 23.1189 242.562 23.1189C242.562 23.1189 244.201 22.1653 245.304 20.9666C246.408 19.7679 247.399 18.8135 247.399 18.8135C247.399 18.8135 248.132 18.5355 248.039 19.1967C247.945 19.8578 247.718 20.0267 247.718 20.0267C247.718 20.0267 248.239 20.0149 248.143 20.5161C248.048 21.0174 247.934 21.1019 247.934 21.1019C247.934 21.1019 248.315 21.14 248.232 21.5786C248.148 22.0172 247.846 22.2425 247.846 22.2425C247.846 22.2425 248.114 22.365 247.764 22.8409C247.414 23.3167 245.488 25.7741 244.354 26.4588C243.219 27.1435 240.426 28.1322 240.426 28.1322C240.426 28.1322 238.071 25.8734 238.448 25.1676Z" fill="#C26E5E"/>
<path fill-rule="evenodd" clip-rule="evenodd" d="M244.602 24.5722L244.545 24.4433C244.553 24.4395 245.394 24.0581 246.407 23.0002C247.109 22.2678 247.468 22.1117 247.646 22.1097C247.731 22.11 247.771 22.1418 247.78 22.152L247.681 22.2518C247.684 22.2557 247.687 22.257 247.687 22.257C247.684 22.2557 247.438 22.1276 246.509 23.0978C245.475 24.1777 244.638 24.5566 244.602 24.5722Z" fill="black"/>
<path fill-rule="evenodd" clip-rule="evenodd" d="M244.349 23.8862L244.276 23.7652C244.279 23.7637 244.52 23.6193 245.173 23.2468C245.618 22.9928 246.253 22.3301 246.717 21.8461C246.93 21.623 247.115 21.4304 247.234 21.3256C247.632 20.9782 247.939 21.0246 247.952 21.0268L247.93 21.1661C247.927 21.166 247.671 21.1323 247.328 21.4319C247.213 21.5325 247.03 21.723 246.819 21.9437C246.349 22.4339 245.706 23.1052 245.243 23.3694C244.592 23.7409 244.351 23.8848 244.349 23.8862Z" fill="black"/>
<path fill-rule="evenodd" clip-rule="evenodd" d="M244.161 23.3228L244.091 23.2007C244.1 23.1955 244.988 22.6796 245.635 22.1258C246.238 21.6097 246.804 20.8513 247.108 20.444L247.179 20.3489C247.474 19.9556 247.684 19.9442 247.707 19.9442L247.709 20.0853C247.708 20.0854 247.543 20.1001 247.292 20.4337L247.221 20.5283C246.914 20.9401 246.342 21.7066 245.727 22.233C245.07 22.7955 244.17 23.3176 244.161 23.3228Z" fill="black"/>
<path fill-rule="evenodd" clip-rule="evenodd" d="M241.054 23.8858L240.978 23.7667C241 23.7529 241.514 23.428 241.902 23.3795C242.25 23.336 242.518 23.0726 242.521 23.0699L242.621 23.1699C242.608 23.1821 242.316 23.4701 241.92 23.5196C241.563 23.5642 241.059 23.8826 241.054 23.8858Z" fill="black"/>
<path fill-rule="evenodd" clip-rule="evenodd" d="M240.427 28.1317C240.427 28.1317 239.909 28.5082 239.013 30.3434C238.118 32.1786 234.867 40.0372 234.867 40.0372L232.55 31.8676C232.55 31.8676 237.101 25.5451 239.094 23.7797C241.087 22.0143 240.427 28.1317 240.427 28.1317Z" fill="#C26E5E"/>
<path fill-rule="evenodd" clip-rule="evenodd" d="M187.973 23.9117C187.973 23.9117 188.562 22.935 186.36 20.8307C185.198 19.7203 184.319 17.1548 183.674 17.5962C183.029 18.0376 184.37 21.0589 184.37 21.0589C184.37 21.0589 182.963 19.788 182.131 18.3877C181.3 16.9874 180.527 15.8491 180.527 15.8491C180.527 15.8491 179.867 15.4261 179.822 16.0923C179.777 16.7584 179.964 16.9704 179.964 16.9704C179.964 16.9704 179.457 16.8516 179.447 17.3618C179.437 17.872 179.531 17.978 179.531 17.978C179.531 17.978 179.15 17.9367 179.141 18.3831C179.132 18.8295 179.381 19.1122 179.381 19.1122C179.381 19.1122 179.094 19.1769 179.338 19.7146C179.582 20.2523 180.958 23.0539 181.927 23.9577C182.896 24.8616 185.424 26.4046 185.424 26.4046C185.424 26.4046 188.196 24.6801 187.973 23.9117Z" fill="#C26E5E"/>
<path fill-rule="evenodd" clip-rule="evenodd" d="M182.073 22.0617C182.042 22.0392 181.301 21.4958 180.512 20.2258C179.803 19.0851 179.537 19.1593 179.534 19.1605C179.534 19.1605 179.537 19.1596 179.541 19.1567L179.464 19.0384C179.476 19.0307 179.522 19.0065 179.604 19.0247C179.778 19.0634 180.097 19.2902 180.632 20.1514C181.406 21.3979 182.149 21.942 182.156 21.9473L182.073 22.0617Z" fill="black"/>
<path fill-rule="evenodd" clip-rule="evenodd" d="M182.461 21.4415C182.459 21.4396 182.254 21.2492 181.693 20.7515C181.295 20.3976 180.805 19.6081 180.446 19.0317C180.285 18.7722 180.146 18.5482 180.054 18.4259C179.781 18.0628 179.523 18.0419 179.521 18.0418L179.527 17.9008C179.54 17.9014 179.85 17.9193 180.167 18.3412C180.263 18.4684 180.404 18.6949 180.567 18.9573C180.92 19.5263 181.404 20.3057 181.787 20.646C182.349 21.145 182.555 21.3362 182.557 21.338L182.461 21.4415Z" fill="black"/>
<path fill-rule="evenodd" clip-rule="evenodd" d="M182.765 20.9285C182.757 20.9216 181.985 20.2252 181.458 19.5394C180.966 18.8976 180.564 18.0296 180.348 17.5632L180.299 17.456C180.122 17.078 179.964 17.0297 179.963 17.0294L179.994 16.8917C180.016 16.8964 180.219 16.9507 180.427 17.3965L180.477 17.504C180.69 17.9654 181.087 18.8241 181.571 19.4535C182.089 20.1291 182.852 20.8167 182.859 20.8235L182.765 20.9285Z" fill="black"/>
<path fill-rule="evenodd" clip-rule="evenodd" d="M185.688 22.1216C185.684 22.1174 185.256 21.7017 184.917 21.5846C184.539 21.4544 184.313 21.1123 184.303 21.0979L184.422 21.0206C184.424 21.0238 184.632 21.337 184.963 21.4511C185.333 21.5786 185.769 22.0027 185.787 22.0206L185.688 22.1216Z" fill="black"/>
<path fill-rule="evenodd" clip-rule="evenodd" d="M185.424 26.4048C185.424 26.4048 185.853 26.88 186.35 28.8603C186.846 30.8405 188.403 39.2 188.403 39.2L192.36 31.6842C192.36 31.6842 189.213 24.5596 187.628 22.4214C186.043 20.2831 185.424 26.4048 185.424 26.4048Z" fill="#C26E5E"/>
<mask id="mask0_7619_23404" style="mask-type:luminance" maskUnits="userSpaceOnUse" x="186" y="24" width="51" height="33">
<path fill-rule="evenodd" clip-rule="evenodd" d="M186.609 24.3302H236.041V56.8046H186.609V24.3302Z" fill="white"/>
</mask>
<g mask="url(#mask0_7619_23404)">
<path fill-rule="evenodd" clip-rule="evenodd" d="M208.714 24.5551C208.714 24.5551 202.754 25.932 200.245 30.1846C197.736 34.4371 195.898 35.0488 195.898 35.0488C195.898 35.0488 193.966 30.1078 192.93 30.2961C191.893 30.4843 186.381 39.0958 186.616 39.8957C186.852 40.6957 191.359 51.8256 196.22 49.7664C201.081 47.7072 202.353 44.1309 202.636 44.9308C202.918 45.7308 201.552 55.8011 202.73 56.0834C203.908 56.3656 210.609 56.9011 216.724 56.7891C221.859 56.695 224.969 56.9302 225.204 54.7658C225.44 52.6012 224.639 45.072 224.639 45.072C224.639 45.072 227.23 48.2719 229.492 47.2366C231.754 46.2014 236.041 42.7662 236.041 42.7662L232.743 31.2372L229.539 34.2959C229.539 34.2959 225.958 28.3197 223.838 27.1903C221.718 26.0609 217.595 24.3302 217.595 24.3302C217.595 24.3302 215.216 26.3903 214.179 27.8491C213.143 29.3079 212.86 30.0608 212.86 30.0608C212.86 30.0608 210.551 25.6374 208.714 24.5551Z" fill="#C03731"/>
</g>
<path fill-rule="evenodd" clip-rule="evenodd" d="M204.334 38.0137L207.302 41.7782C207.302 41.7782 207.726 40.1312 206.878 38.8136C206.03 37.496 204.334 38.0137 204.334 38.0137Z" fill="#DDB0C8"/>
<path fill-rule="evenodd" clip-rule="evenodd" d="M218.892 27.4261L221.86 31.1907C221.86 31.1907 222.284 29.5437 221.436 28.2261C220.588 26.9085 218.892 27.4261 218.892 27.4261Z" fill="#DDB0C8"/>
<path fill-rule="evenodd" clip-rule="evenodd" d="M205.465 51.2364L208.433 55.001C208.433 55.001 208.857 53.354 208.009 52.0364C207.161 50.7188 205.465 51.2364 205.465 51.2364Z" fill="#DDB0C8"/>
<path fill-rule="evenodd" clip-rule="evenodd" d="M218.611 43.8959L221.58 47.6604C221.58 47.6604 222.004 46.0134 221.156 44.6958C220.308 43.3782 218.611 43.8959 218.611 43.8959Z" fill="#DDB0C8"/>
<path fill-rule="evenodd" clip-rule="evenodd" d="M213.234 51.7926L216.434 48.222C216.434 48.222 214.736 48.0895 213.583 49.1515C212.431 50.2135 213.234 51.7926 213.234 51.7926Z" fill="#DDB0C8"/>
<path fill-rule="evenodd" clip-rule="evenodd" d="M211.491 42.2395L214.691 38.6689C214.691 38.6689 212.993 38.5364 211.84 39.5984C210.688 40.6604 211.491 42.2395 211.491 42.2395Z" fill="#DDB0C8"/>
<path fill-rule="evenodd" clip-rule="evenodd" d="M218.287 35.6725L217.149 40.3274C217.149 40.3274 218.709 39.6457 219.225 38.1665C219.741 36.6873 218.287 35.6725 218.287 35.6725Z" fill="#DDB0C8"/>
<path fill-rule="evenodd" clip-rule="evenodd" d="M224.978 32.3789L223.84 37.0338C223.84 37.0338 225.4 36.3521 225.916 34.8729C226.432 33.3937 224.978 32.3789 224.978 32.3789Z" fill="#DDB0C8"/>
<path fill-rule="evenodd" clip-rule="evenodd" d="M204.58 47.2213L209.28 46.2579C209.28 46.2579 207.996 45.1413 206.436 45.3081C204.877 45.4749 204.58 47.2213 204.58 47.2213Z" fill="#DDB0C8"/>
<path fill-rule="evenodd" clip-rule="evenodd" d="M200.93 41.2172L196.22 40.3064C196.22 40.3064 196.977 41.8296 198.481 42.273C199.986 42.7163 200.93 41.2172 200.93 41.2172Z" fill="#DDB0C8"/>
<path fill-rule="evenodd" clip-rule="evenodd" d="M190.813 36.5262L188.381 40.6567C188.381 40.6567 190.072 40.4525 190.992 39.1843C191.913 37.9161 190.813 36.5262 190.813 36.5262Z" fill="#DDB0C8"/>
<path fill-rule="evenodd" clip-rule="evenodd" d="M191.809 45.6683L195.838 48.2703C195.838 48.2703 195.705 46.5749 194.475 45.6025C193.246 44.6301 191.809 45.6683 191.809 45.6683Z" fill="#DDB0C8"/>
<path fill-rule="evenodd" clip-rule="evenodd" d="M204.663 31.8556L208.132 28.5457C208.132 28.5457 206.45 28.2811 205.217 29.2499C203.985 30.2186 204.663 31.8556 204.663 31.8556Z" fill="#DDB0C8"/>
<path fill-rule="evenodd" clip-rule="evenodd" d="M198.096 35.7611L202.591 34.0856C202.591 34.0856 201.15 33.18 199.635 33.585C198.12 33.9898 198.096 35.7611 198.096 35.7611Z" fill="#DDB0C8"/>
<path fill-rule="evenodd" clip-rule="evenodd" d="M212.796 34.0673L217.291 32.3918C217.291 32.3918 215.85 31.4863 214.335 31.8912C212.82 32.2961 212.796 34.0673 212.796 34.0673Z" fill="#DDB0C8"/>
<path fill-rule="evenodd" clip-rule="evenodd" d="M225.377 42.4434L229.872 40.7679C229.872 40.7679 228.431 39.8624 226.916 40.2673C225.401 40.6722 225.377 42.4434 225.377 42.4434Z" fill="#DDB0C8"/>
<path fill-rule="evenodd" clip-rule="evenodd" d="M217.791 55.1495L222.286 53.474C222.286 53.474 220.845 52.5684 219.33 52.9734C217.815 53.3783 217.791 55.1495 217.791 55.1495Z" fill="#DDB0C8"/>
<path d="M216.785 15.5536L216.965 15.6111L216.947 15.6672C216.933 15.713 216.917 15.7654 216.9 15.8236C216.852 15.9897 216.803 16.1682 216.758 16.3518C216.708 16.556 216.665 16.754 216.631 16.9409L216.621 16.9963C216.539 17.4717 216.528 17.8348 216.601 18.03L216.605 18.0411C217.024 19.0746 216.456 19.5987 215.263 19.2317L215.227 19.2203L215.284 19.0411C216.358 19.3843 216.789 18.9976 216.431 18.1116C216.332 17.8678 216.347 17.4539 216.446 16.9076C216.48 16.7164 216.524 16.5147 216.575 16.3069C216.616 16.1412 216.659 15.9798 216.703 15.8276L216.719 15.7709C216.729 15.7372 216.738 15.7053 216.747 15.6755L216.77 15.6L216.785 15.5536Z" fill="black"/>
<path d="M212.131 22.7547L212.223 22.5905L212.256 22.6088L212.287 22.6252C212.334 22.6498 212.387 22.6769 212.446 22.706L212.472 22.7185C212.671 22.8153 212.891 22.9122 213.125 23.0026C213.665 23.2105 214.198 23.3523 214.694 23.3983C214.918 23.4192 215.131 23.4197 215.331 23.3983L215.371 23.3938L215.394 23.5807C215.169 23.6084 214.929 23.6093 214.676 23.5859C214.161 23.5381 213.612 23.3919 213.058 23.1783C212.818 23.0859 212.593 22.9869 212.39 22.8879L212.313 22.8499C212.28 22.8335 212.249 22.8178 212.221 22.8029L212.167 22.7747L212.131 22.7547Z" fill="black"/>
<path fill-rule="evenodd" clip-rule="evenodd" d="M213.62 20.1601C214.505 20.2548 215.128 20.731 215.157 20.7537C215.218 20.8015 215.23 20.8902 215.182 20.9519C215.134 21.0134 215.045 21.0247 214.983 20.9768C214.971 20.9673 214.239 20.4133 213.282 20.4266C213.205 20.4276 213.14 20.3653 213.139 20.2873C213.138 20.2093 213.2 20.1451 213.278 20.1441C213.396 20.1424 213.51 20.1483 213.62 20.1601Z" fill="black"/>
<path fill-rule="evenodd" clip-rule="evenodd" d="M215.931 19.3484C215.74 19.3484 215.502 19.3112 215.206 19.2164L215.263 19.0371C215.816 19.2136 216.224 19.1992 216.412 18.9965C216.572 18.8239 216.571 18.5083 216.409 18.1077C216.299 17.836 216.327 17.3206 216.49 16.5758C216.61 16.0307 216.762 15.5544 216.764 15.5497L216.943 15.6072C216.778 16.1217 216.391 17.5612 216.584 18.0372C216.829 18.6423 216.701 18.9624 216.55 19.1245C216.443 19.2402 216.255 19.3484 215.931 19.3484Z" fill="black"/>
<path fill-rule="evenodd" clip-rule="evenodd" d="M215.358 14.9524C215.331 14.9597 215.302 14.9626 215.272 14.9604C214.981 14.9389 214.148 14.8982 213.786 14.9671C213.444 15.032 212.978 15.3341 212.827 15.445C212.712 15.5297 212.549 15.5051 212.465 15.39C212.38 15.2749 212.404 15.1129 212.519 15.028C212.545 15.0089 213.161 14.5586 213.689 14.4583C214.193 14.3626 215.265 14.4405 215.31 14.4439C215.453 14.4545 215.56 14.5787 215.549 14.7213C215.541 14.8341 215.462 14.9247 215.358 14.9524Z" fill="black"/>
<path fill-rule="evenodd" clip-rule="evenodd" d="M219.221 16.5334C219.173 16.5139 219.13 16.4796 219.101 16.4321C219.007 16.2804 218.701 15.8492 218.422 15.6781C218.123 15.4956 217.363 15.2589 217.095 15.183C216.96 15.1448 216.882 15.0053 216.92 14.8711C216.958 14.7369 217.098 14.6589 217.233 14.6969C217.275 14.7088 218.267 14.9911 218.686 15.2473C219.126 15.5166 219.515 16.14 219.531 16.1664C219.605 16.2851 219.568 16.4408 219.449 16.5141C219.378 16.5581 219.293 16.5625 219.221 16.5334Z" fill="black"/>
<path fill-rule="evenodd" clip-rule="evenodd" d="M214.502 16.5951C214.502 16.7479 214.378 16.8717 214.226 16.8717C214.073 16.8717 213.949 16.7479 213.949 16.5951C213.949 16.4423 214.073 16.3185 214.226 16.3185C214.378 16.3185 214.502 16.4423 214.502 16.5951Z" fill="black"/>
<path fill-rule="evenodd" clip-rule="evenodd" d="M218.047 16.9098C218.047 17.0626 217.923 17.1864 217.771 17.1864C217.618 17.1864 217.494 17.0626 217.494 16.9098C217.494 16.7571 217.618 16.6332 217.771 16.6332C217.923 16.6332 218.047 16.7571 218.047 16.9098Z" fill="black"/>
<mask id="mask1_7619_23404" style="mask-type:luminance" maskUnits="userSpaceOnUse" x="210" y="0" width="11" height="8">
<path fill-rule="evenodd" clip-rule="evenodd" d="M210.587 0H220.745V7.18017H210.587V0Z" fill="white"/>
</mask>
<g mask="url(#mask1_7619_23404)">
<path fill-rule="evenodd" clip-rule="evenodd" d="M218.956 7.08889C218.956 7.08889 218.765 6.64519 219.809 6.59672C220.852 6.54825 221.265 4.4152 219.76 3.46982C218.255 2.52449 219.881 1.5307 217.576 0.342981C215.27 -0.844789 214.129 1.43372 214.129 1.43372C214.129 1.43372 211.702 0.488387 210.853 2.42755C210.004 4.36668 211.46 5.14237 211.46 5.14237C211.46 5.14237 210.489 5.79684 211.266 6.59672C212.042 7.39664 214.138 6.50769 214.486 6.94005C214.833 7.37241 218.956 7.08889 218.956 7.08889Z" fill="#0F0F0F"/>
</g>
<path fill-rule="evenodd" clip-rule="evenodd" d="M211.975 7.53338C211.975 7.53338 212.71 6.18195 214.457 6.05569C216.204 5.92944 216.988 6.54927 217.191 7.53338C217.394 8.51749 211.975 7.53338 211.975 7.53338Z" fill="white"/>
<mask id="mask2_7619_23404" style="mask-type:luminance" maskUnits="userSpaceOnUse" x="208" y="6" width="13" height="12">
<path fill-rule="evenodd" clip-rule="evenodd" d="M208.261 6.97815H220.065V17.3915H208.261V6.97815Z" fill="white"/>
</mask>
<g mask="url(#mask2_7619_23404)">
<path fill-rule="evenodd" clip-rule="evenodd" d="M209.313 16.3404C209.313 16.3404 209.24 16.0253 209.702 15.589C210.163 15.1527 209.993 13.1408 211.085 12.7772C212.177 12.4136 213.997 10.5472 214.847 10.5472C215.696 10.5472 217.152 11.3228 217.735 11.2744C218.317 11.2259 219.094 12.3894 219.143 12.9953C219.191 13.6014 219.987 14.6855 219.492 17.3915C219.492 17.3915 220.065 16.4859 220.065 15.4193C220.065 14.3528 219.919 14.1104 219.992 12.5833C220.065 11.0562 219.895 9.48065 218.779 8.75347C217.662 8.02625 216.958 6.69312 215.235 7.03245C213.512 7.37183 212.177 6.95975 211.158 8.05053C210.408 8.85286 209.289 9.40794 209.046 11.0562C208.82 12.5918 207.572 13.3018 208.782 14.9544C208.782 14.9544 209.313 15.8072 209.313 16.3404Z" fill="#0F0F0F"/>
</g>
<path fill-rule="evenodd" clip-rule="evenodd" d="M212.1 7.42341C212.1 7.42341 212.421 6.09362 214.542 5.95245C216.662 5.81128 217.075 6.72343 217.175 7.46731C217.175 7.46731 216.304 6.88536 215.187 7.12478C214.071 7.36416 212.815 7.20031 212.1 7.42341Z" fill="#56ACF6"/>
<path d="M142.115 45.9064C139.405 45.9064 139.405 49.9653 142.115 49.9653C144.823 49.9653 144.823 45.9064 142.115 45.9064Z" fill="#FF5104"/>
<path d="M165.353 36.9042C162.371 36.9042 162.371 41.369 165.353 41.369C168.332 41.369 168.332 36.9042 165.353 36.9042Z" fill="#F9C818"/>
<path d="M137.514 23.901C134.262 23.901 134.262 28.7717 137.514 28.7717C140.764 28.7717 140.764 23.901 137.514 23.901Z" fill="#F99F65"/>
<path d="M167.152 13.8987C164.442 13.8987 164.442 17.9576 167.152 17.9576C169.861 17.9576 169.861 13.8987 167.152 13.8987Z" fill="#FF5104"/>
<path d="M121.287 51.9078C118.305 51.9078 118.305 56.3727 121.287 56.3727C124.266 56.3727 124.266 51.9078 121.287 51.9078Z" fill="#F9C818"/>
<path d="M188.59 52.908C185.338 52.908 185.338 57.7787 188.59 57.7787C191.84 57.7787 191.84 52.908 188.59 52.908Z" fill="#F99F65"/>
<defs>
<clipPath id="clip0_7619_23404">
<rect width="48.0718" height="48.0114" fill="white" transform="translate(136.076 48.9071)"/>
</clipPath>
</defs>
</svg>
