<svg width="115" height="85" viewBox="0 0 115 85" fill="none" xmlns="http://www.w3.org/2000/svg">
<path d="M57.0713 83.7255C82.7439 83.7255 103.556 81.6324 103.556 79.0505C103.556 76.4685 82.7439 74.3755 57.0713 74.3755C31.3987 74.3755 10.5869 76.4685 10.5869 79.0505C10.5869 81.6324 31.3987 83.7255 57.0713 83.7255Z" fill="#E8EDEE"/>
<circle cx="56.809" cy="44.6254" r="34.85" fill="#0B7639"/>
<path d="M50.8596 52.1052L42.5296 43.7752L39.7529 46.5519L50.8596 57.6586L74.6596 33.8586L71.8829 31.0819L50.8596 52.1052Z" fill="white"/>
<path d="M26.4641 33.3665C25.2965 32.3054 25.4633 30.7137 24.9629 29.2988C24.129 26.646 22.6279 25.0542 20.1259 24.1699C18.9584 23.8161 17.6241 23.2856 16.4566 22.755C16.123 22.2244 16.2897 21.6939 16.2897 20.9864C16.4566 20.8096 16.7901 20.8096 16.957 20.6327C17.7908 20.279 18.7916 19.9253 19.6256 19.7484C22.9614 19.041 24.6294 16.3881 25.2965 13.2047C25.4633 12.3204 25.6301 11.4362 26.1305 10.5519C26.6309 10.375 27.1312 10.375 27.6316 10.5519C30.3003 19.9253 31.8014 19.041 37.3055 20.8096C37.4724 20.9864 37.4724 21.1633 37.4724 21.3401C37.4724 21.8707 37.4724 22.2244 37.4724 22.9319C31.6346 23.6393 28.2987 26.9997 27.6316 33.0128C27.6316 33.5434 26.9645 33.3665 26.4641 33.3665Z" fill="#FBB811"/>
<path d="M38.5448 8.71925C40.1076 8.71925 41.3747 7.43348 41.3747 5.8473C41.3747 4.26121 40.1076 2.97534 38.5448 2.97534C36.9819 2.97534 35.7148 4.26121 35.7148 5.8473C35.7148 7.43348 36.9819 8.71925 38.5448 8.71925Z" fill="#9BF0F1"/>
<path d="M88.6014 63.3808C89.7689 62.3197 89.6021 60.728 90.1025 59.3131C90.9365 56.6602 92.4376 55.0684 94.9395 54.1842C96.107 53.8304 97.4413 53.2999 98.6089 52.7693C98.9425 52.2387 98.7757 51.7082 98.7757 51.0007C98.6089 50.8239 98.2753 50.8239 98.1085 50.647C97.2746 50.2933 96.2738 49.9396 95.4398 49.7627C92.104 49.0553 90.4361 46.4024 89.7689 43.219C89.6021 42.3347 89.4353 41.4505 88.9349 40.5661C88.4345 40.3892 87.9342 40.3892 87.4338 40.5661C84.7652 49.9396 83.264 49.0553 77.7599 50.8239C77.5931 51.0007 77.5931 51.1776 77.5931 51.3544C77.5931 51.885 77.5931 52.2387 77.5931 52.9462C83.4308 53.6536 86.7667 57.0139 87.4338 63.0271C87.4338 63.5577 88.101 63.3808 88.6014 63.3808Z" fill="#FBB811"/>
<path d="M98.8488 40.1693C97.2859 40.1693 96.0189 38.8836 96.0189 37.2974C96.0189 35.7113 97.2859 34.4254 98.8488 34.4254C100.412 34.4254 101.679 35.7113 101.679 37.2974C101.679 38.8836 100.412 40.1693 98.8488 40.1693Z" fill="#0C989A"/>
<path d="M13.4181 36.7693C11.8552 36.7693 10.5882 35.4835 10.5882 33.8973C10.5882 32.3113 11.8552 31.0254 13.4181 31.0254C14.981 31.0254 16.248 32.3113 16.248 33.8973C16.248 35.4835 14.981 36.7693 13.4181 36.7693Z" fill="#0C989A"/>
<path d="M97.1739 72.4692C95.6111 72.4692 94.3441 71.1835 94.3441 69.5973C94.3441 68.0112 95.6111 66.7253 97.1739 66.7253C98.7369 66.7253 100.004 68.0112 100.004 69.5973C100.004 71.1835 98.7369 72.4692 97.1739 72.4692Z" fill="#9BF0F1"/>
</svg>
